<svg width="16" height="30" viewBox="0 0 16 30" fill="none" xmlns="http://www.w3.org/2000/svg">
<g style="mix-blend-mode:screen" clip-path="url(#clip0_2051_46)">
<path d="M0.605469 23.5762H15.1578V0.635183H0.605469V23.5762Z" fill="#DFDFDF"/>
<mask id="mask0_2051_46" style="mask-type:luminance" maskUnits="userSpaceOnUse" x="0" y="0" width="16" height="30">
<path d="M0 -1.39326e-06H16V30H0V-1.39326e-06Z" fill="white"/>
</mask>
<g mask="url(#mask0_2051_46)">
<path d="M2.26498 15.2706C2.2746 15.2573 2.28498 15.2442 2.29545 15.2314L2.26268 15.2312C2.25864 15.2391 2.25343 15.2471 2.24672 15.254C2.25812 15.2563 2.26216 15.26 2.26498 15.2706ZM2.43036 14.9152C2.44959 14.8919 2.46409 14.8711 2.48931 14.8525C2.47767 14.85 2.46915 14.8426 2.46915 14.8426C2.45125 14.8581 2.44409 14.8794 2.41888 14.8968C2.42781 14.907 2.43036 14.9152 2.43036 14.9152ZM2.57816 14.7407C2.59032 14.7327 2.59917 14.7156 2.59658 14.7051C2.58466 14.7131 2.57577 14.7304 2.57816 14.7407ZM2.85731 16.3454C2.75092 16.3798 2.63844 16.447 2.55197 16.5482H2.55181C2.4927 16.6175 2.43884 16.6899 2.39137 16.7485C2.38341 16.7586 2.39169 16.778 2.37892 16.7899C2.34563 16.8206 2.29896 16.8489 2.27351 16.8923C2.26284 16.9105 2.25892 16.9322 2.24822 16.9524L2.28106 16.9521C2.33521 16.886 2.399 16.8237 2.45553 16.7508C2.48967 16.7073 2.56894 16.6293 2.56894 16.611C2.56894 16.5929 2.59218 16.5686 2.59904 16.5502C2.60175 16.5497 2.6049 16.5492 2.60805 16.5486H2.60951C2.61323 16.5482 2.61674 16.5472 2.61957 16.5456C2.68571 16.4683 2.78636 16.4226 2.85731 16.3454ZM4.10361 15.9376C4.0963 15.9121 4.09638 15.8927 4.10361 15.8676H4.06595C4.07323 15.8995 4.05751 15.9219 4.06692 15.9376H4.10361ZM4.0662 15.9616C4.0651 15.9714 4.05848 15.9759 4.04983 15.9872C4.0611 15.9893 4.07682 15.9966 4.08704 15.9957L4.09573 15.9616H4.0662ZM5.07622 15.1815C5.06749 15.1703 5.04886 15.1692 5.03832 15.1703C5.03719 15.1801 5.06474 15.184 5.07622 15.1815ZM4.10038 16.2252C4.09654 16.2178 4.08874 16.2035 4.09104 16.1928C4.10329 16.2011 4.10422 16.218 4.10038 16.2252ZM5.80927 15.7671C5.80927 15.7645 5.85816 15.6778 5.871 15.671V15.6375C5.84442 15.6365 5.82094 15.6365 5.8007 15.6377V15.6128C5.82304 15.5997 5.8485 15.5601 5.8485 15.5421C5.8485 15.5239 5.83226 15.5223 5.82858 15.5158C5.75492 15.488 5.69618 15.4786 5.63529 15.4313C5.60801 15.4093 5.57028 15.3751 5.55072 15.3751C5.53088 15.3751 5.51484 15.3825 5.49949 15.3846C5.48842 15.3984 5.48054 15.4131 5.47359 15.4243C5.43533 15.4409 5.40296 15.4632 5.37209 15.4891C5.36506 15.4914 5.34943 15.4914 5.34296 15.4936C5.30098 15.5277 5.22438 15.5657 5.17727 15.5757C5.14692 15.5822 5.11407 15.5712 5.08902 15.5797C5.0824 15.6093 5.04482 15.622 5.03642 15.6249C5.03359 15.6316 5.03508 15.6443 5.02757 15.6486C4.94482 15.6767 4.85371 15.7296 4.77803 15.7766C4.76446 15.7851 4.7607 15.804 4.75351 15.8081C4.69137 15.8181 4.67492 15.8522 4.62785 15.8882C4.60543 15.8906 4.5786 15.8964 4.55884 15.9074C4.54026 15.9172 4.51925 15.934 4.50345 15.9365C4.49262 15.9581 4.46123 15.9656 4.4544 15.9831C4.40866 15.9996 4.35513 16.0235 4.31565 16.0451C4.24713 16.0833 4.17274 16.1412 4.11003 16.1759C4.00127 16.2367 3.91367 16.3196 3.82894 16.386C3.8228 16.3841 3.81315 16.3841 3.80414 16.3864C3.76199 16.4363 3.72809 16.4258 3.68005 16.4667C3.66842 16.4766 3.65892 16.5044 3.64704 16.5128C3.62765 16.5264 3.58741 16.5095 3.57177 16.5123C3.56858 16.5193 3.57007 16.5246 3.5628 16.5289C3.42078 16.5805 3.49201 16.6111 3.38401 16.6111C3.36462 16.6111 3.26648 16.5965 3.24708 16.5967C3.17537 16.5965 3.15864 16.6215 3.08385 16.6428C3.07533 16.6568 3.06199 16.6704 3.04595 16.6828V16.6831C3.0182 16.7057 2.98236 16.7259 2.95096 16.7443C2.91949 16.7623 2.90292 16.8014 2.87238 16.8192C2.85294 16.8312 2.8228 16.8364 2.8022 16.8456C2.78858 16.852 2.78624 16.8731 2.77868 16.8772C2.77125 16.8799 2.75379 16.8811 2.74757 16.8894C2.7462 16.9332 2.7146 16.9492 2.68478 16.9849C2.68276 16.9909 2.68276 17.0055 2.6803 17.0119C2.65302 17.0325 2.62898 17.0619 2.61399 17.0869C2.61383 17.0874 2.61347 17.0879 2.61331 17.0883C2.60672 17.0903 2.599 17.0903 2.59177 17.0929C2.57323 17.1211 2.55472 17.1472 2.535 17.1609C2.52313 17.1689 2.5062 17.17 2.49537 17.1712C2.4963 17.2139 2.43832 17.2513 2.41876 17.2747C2.38252 17.3183 2.34446 17.4367 2.26078 17.4174C2.25908 17.4277 2.27468 17.4312 2.27468 17.4494C2.27468 17.4605 2.25464 17.4764 2.23557 17.4926C2.22341 17.5032 2.21173 17.5137 2.20628 17.5234C2.16313 17.523 2.10777 17.5361 2.07921 17.5962C2.13359 17.6126 2.14252 17.5752 2.16838 17.5619C2.17424 17.5682 2.17294 17.5729 2.17315 17.5789C2.12672 17.6358 2.03177 17.7072 2.03177 17.7252C2.03177 17.7434 2.03355 17.7512 2.02612 17.7554C2.01864 17.758 2.00082 17.7676 1.99771 17.7751C1.99468 17.7928 1.98902 17.8142 1.96527 17.8182C1.95533 17.8289 1.93929 17.8602 1.92462 17.8703C1.92127 17.881 1.90325 17.9124 1.87864 17.92C1.86793 17.9337 1.85933 17.9495 1.8565 17.9634C1.85205 17.9701 1.83618 17.9705 1.83311 17.9787C1.83197 18.0164 1.79133 18.0418 1.76753 18.0775H1.74721C1.74066 18.071 1.73771 18.0627 1.72733 18.064C1.7262 18.0738 1.71428 18.0847 1.70801 18.0849C1.70147 18.0783 1.7026 18.0732 1.7026 18.0732C1.71016 18.0529 1.71711 18.0327 1.74179 18.0083C1.7329 17.9986 1.73238 17.9909 1.73238 17.9909H1.70365C1.7026 18.001 1.69589 18.0059 1.69113 18.0121C1.67844 17.9918 1.65153 17.9796 1.64959 17.9642C1.6447 17.9352 1.6321 17.8993 1.6321 17.881C1.6321 17.8706 1.66555 17.6901 1.70466 17.4926C1.731 17.3598 1.75989 17.2191 1.78256 17.117C1.78814 17.1105 1.7946 17.1116 1.80074 17.1077C1.80212 17.101 1.80361 17.0941 1.80458 17.087C1.81412 17.0355 1.82115 16.9786 1.82955 16.9284C1.84648 16.913 1.85933 16.9042 1.85933 16.8833C1.85933 16.8653 1.86506 16.7476 1.87658 16.6828C1.87658 16.6821 1.87674 16.6813 1.87694 16.6807C1.87993 16.6664 1.90135 16.6581 1.90341 16.6445C1.9445 16.4349 2.00304 16.2669 2.04785 16.0625C2.05331 16.056 2.06018 16.0569 2.06612 16.0531C2.06979 16.0325 2.07759 16.0159 2.08232 16.0013C2.10874 15.9197 2.12264 15.8264 2.15767 15.743C2.16854 15.7166 2.19517 15.6872 2.19517 15.6693C2.19517 15.6511 2.18551 15.6517 2.18551 15.6517C2.16785 15.6511 2.15383 15.6514 2.14014 15.6457V15.5537C2.1405 15.5358 2.16405 15.5277 2.16405 15.5095C2.16405 15.4913 2.14809 15.4654 2.14494 15.4426C2.13181 15.4273 2.11577 15.4197 2.10555 15.4116C2.07949 15.4264 2.04979 15.4258 2.02632 15.4433C1.9702 15.4838 1.93743 15.5361 1.89779 15.5835C1.90911 15.5858 1.91311 15.5747 1.91311 15.5929C1.91311 15.6111 1.89925 15.6008 1.89205 15.605C1.87706 15.6075 1.85638 15.6057 1.85153 15.6105C1.82494 15.6347 1.78353 15.657 1.76704 15.676C1.75222 15.6922 1.7344 15.7169 1.71969 15.7271C1.71715 15.7414 1.71367 15.7566 1.70664 15.7693C1.69799 15.7856 1.67913 15.7975 1.67048 15.8084C1.68179 15.8107 1.68583 15.8138 1.68583 15.8138C1.66147 15.8153 1.65149 15.8574 1.6487 15.8639C1.63993 15.8854 1.62725 15.9024 1.6087 15.9177C1.56054 15.9604 1.50127 16.0064 1.45306 16.0682C1.45306 16.0682 1.44405 16.0927 1.42959 16.1043C1.41917 16.1325 1.40434 16.153 1.39028 16.17C1.38797 16.1759 1.39585 16.1832 1.39371 16.1894C1.38187 16.1959 1.38111 16.211 1.37593 16.2169C1.37088 16.211 1.35771 16.211 1.35771 16.211C1.36482 16.2297 1.37218 16.2349 1.37218 16.2349C1.3167 16.276 1.31702 16.311 1.27294 16.3655C1.24058 16.4054 1.22385 16.4966 1.15266 16.519C1.16434 16.5217 1.17614 16.5073 1.17614 16.5256C1.17614 16.5736 1.10143 16.5657 1.07783 16.6001C1.06519 16.6182 1.05125 16.6394 1.03933 16.6501C1.03169 16.6571 1.03193 16.6712 1.03096 16.6828V16.6831C1.03032 16.6897 1.02911 16.6956 1.02612 16.6999C1.01828 16.7107 0.998479 16.725 0.991368 16.7386C0.98054 16.7601 0.993954 16.7931 0.942883 16.8233V16.8496C0.953873 16.8506 0.957711 16.8542 0.958196 16.86C0.938802 16.8722 0.927974 16.913 0.897428 16.9342C0.895085 16.9629 0.87759 17.0004 0.868661 17.0275C0.864216 17.041 0.849226 17.063 0.831893 17.0866H0.831731C0.800499 17.1286 0.761913 17.1754 0.761913 17.1882C0.761913 17.2518 0.703045 17.2948 0.693711 17.3464C0.676297 17.3675 0.653348 17.4009 0.638681 17.428C0.629509 17.4458 0.625832 17.4692 0.619893 17.4926C0.617105 17.5031 0.609873 17.5113 0.605469 17.521V21.3787C0.608661 21.3839 0.612014 21.3897 0.614843 21.3936H0.650196C0.659529 21.3775 0.666721 21.364 0.671812 21.3577C0.676944 21.364 0.68458 21.364 0.69161 21.3702C0.691287 21.3759 0.692499 21.3857 0.703731 21.3941C0.722358 21.3631 0.769792 21.3321 0.769792 21.3143C0.769792 21.296 0.753994 21.3143 0.753994 21.296C0.753994 21.278 0.769792 21.2925 0.769792 21.2743C0.769792 21.2263 0.700984 21.2122 0.691125 21.2076V21.1882C0.715327 21.1472 0.730479 21.0944 0.765509 21.0858C0.80062 21.022 0.851772 20.9599 0.876257 20.8909C0.897873 20.8314 0.937832 20.776 0.963125 20.73C0.965873 20.7254 0.968095 20.7211 0.970156 20.7171C0.983893 20.6907 0.983045 20.6567 0.990923 20.637C0.995933 20.6241 1.099 20.5033 1.099 20.4687C1.099 20.4505 1.07541 20.447 1.07541 20.4288C1.07541 20.4119 1.08713 20.3596 1.09828 20.3252V20.3249C1.099 20.3224 1.09981 20.3198 1.10074 20.3175C1.11242 20.2847 1.15383 20.2547 1.15383 20.2366C1.15383 20.2182 1.16147 20.1915 1.15589 20.179C1.16098 20.1732 1.17553 20.1671 1.18135 20.1634C1.18987 20.134 1.19076 20.084 1.22814 20.0694C1.23961 20.0495 1.24741 20.0274 1.25715 20.0059C1.26288 19.999 1.27868 19.9917 1.28389 19.984C1.29076 19.9606 1.30038 19.9392 1.3123 19.9206C1.31925 19.9095 1.32696 19.8995 1.33508 19.8904C1.35193 19.8724 1.38115 19.8626 1.38115 19.8445C1.38115 19.7766 1.54373 19.6638 1.59941 19.6094C1.61028 19.5993 1.64256 19.5976 1.65137 19.5906C1.6786 19.5676 1.70349 19.5421 1.72765 19.5158V19.5156C1.7725 19.4666 1.815 19.4134 1.86543 19.3632C1.87214 19.3618 1.88826 19.3544 1.8969 19.3512C1.92919 19.3125 1.9849 19.273 1.9849 19.2349C1.9849 19.2168 1.96135 19.2057 1.96135 19.1878C1.96135 19.1786 1.98939 19.1432 2.0188 19.1111H2.01896C2.04034 19.0882 2.06232 19.0675 2.07448 19.0608C2.08591 19.0488 2.08668 19.0322 2.08838 19.0185C2.09395 19.012 2.10846 19.013 2.11375 19.0099C2.1249 18.9978 2.12963 18.9806 2.14046 18.9708C2.15315 18.9589 2.171 18.9622 2.18458 18.9543C2.20858 18.9173 2.26838 18.8501 2.31306 18.8354C2.32171 18.8075 2.35246 18.787 2.36708 18.7677C2.37383 18.7667 2.39181 18.7653 2.39706 18.7574C2.40018 18.7497 2.39884 18.7369 2.40632 18.7316C2.41892 18.725 2.43254 18.7168 2.44636 18.7069H2.44668C2.50014 18.6698 2.55917 18.6164 2.59949 18.589C2.61234 18.5802 2.62317 18.5526 2.64009 18.5508C2.67129 18.5461 2.70256 18.5418 2.73262 18.5384C2.7449 18.5181 2.76737 18.5117 2.7809 18.5012C2.79012 18.4662 2.83678 18.4433 2.86612 18.4221C2.87896 18.413 2.89537 18.3842 2.90834 18.3759C2.92094 18.3677 2.94127 18.3675 2.96074 18.3675C3.02268 18.3675 3.06377 18.4626 3.06935 18.4941C3.09121 18.5058 3.12143 18.5654 3.12143 18.5781C3.12143 18.5962 3.14656 18.6136 3.15513 18.6193C3.15278 18.6321 3.16094 18.6484 3.16365 18.6539C3.18668 18.6667 3.19674 18.6855 3.20232 18.7067H3.20248C3.2089 18.729 3.21048 18.7541 3.21832 18.7773C3.22555 18.7809 3.23913 18.7667 3.23913 18.785C3.23913 18.8737 3.29824 18.8704 3.33545 18.9864C3.34308 19.0118 3.38018 19.0425 3.38018 19.0608C3.38018 19.0788 3.37294 19.0771 3.37294 19.0771C3.39197 19.0788 3.40426 19.0844 3.40906 19.091C3.40963 19.098 3.41315 19.1047 3.41779 19.111C3.42725 19.1235 3.44106 19.1354 3.44826 19.1493C3.47658 19.203 3.49775 19.2575 3.51597 19.3139C3.53824 19.3345 3.56442 19.3956 3.57121 19.416C3.5784 19.4194 3.59266 19.4327 3.59719 19.4394C3.59985 19.4533 3.59513 19.4704 3.60216 19.483C3.611 19.5006 3.62737 19.504 3.62814 19.5115C3.6285 19.5128 3.62882 19.5142 3.62935 19.5158C3.64381 19.5711 3.67731 19.6149 3.71488 19.65C3.71743 19.6778 3.73298 19.7069 3.73573 19.7277C3.743 19.7314 3.75702 19.7375 3.76163 19.7444C3.78014 19.8021 3.81945 19.8531 3.83783 19.9023C3.84357 19.9053 3.85331 19.914 3.85969 19.9206V19.9209C3.86139 19.9227 3.86268 19.9247 3.86361 19.9259C3.88228 19.9764 3.89799 20.025 3.92369 20.0642C3.95997 20.1197 4.00515 20.1631 4.03634 20.2093C4.04401 20.2211 4.0468 20.2443 4.04919 20.2572C4.06365 20.2684 4.08102 20.2738 4.08296 20.2811C4.08854 20.2962 4.09387 20.3112 4.09884 20.3252V20.3254C4.11403 20.365 4.12955 20.401 4.15125 20.4318C4.19521 20.4932 4.20805 20.5405 4.23723 20.584C4.26454 20.6229 4.30147 20.68 4.32773 20.7297V20.7301C4.33921 20.7524 4.3489 20.7737 4.35416 20.7912C4.40801 20.7808 4.37759 20.8264 4.40191 20.8558C4.44139 20.9021 4.48482 20.9568 4.50422 21.0124C4.55791 21.0478 4.59614 21.1208 4.69145 21.1268C4.70599 21.146 4.72098 21.1662 4.72361 21.1797C4.76652 21.1941 4.81472 21.271 4.84236 21.3038C4.87331 21.3069 4.9049 21.3215 4.92446 21.3215C4.94426 21.3215 4.93852 21.321 4.9428 21.3182C4.96474 21.3122 5.01771 21.2988 5.01803 21.2651C4.99258 21.2562 4.97864 21.2361 4.96365 21.2176C4.98466 21.2125 5.01076 21.1905 5.01076 21.1729C5.01076 21.1546 4.99521 21.1509 4.99521 21.1325C4.99521 21.1148 5.00304 21.1084 5.01007 21.0761H4.97266C4.96975 21.118 4.93807 21.1443 4.91286 21.162C4.89165 21.1461 4.87682 21.1437 4.86191 21.1226C4.87209 21.1167 4.89323 21.0881 4.92401 21.0808V21.0457C4.92446 21.0275 4.90882 21.0457 4.90882 21.0275C4.90882 21.0093 4.96365 20.9464 4.96846 20.9456C4.99969 20.9406 5.03504 20.9428 5.05561 20.9337C5.06846 20.9285 5.08248 20.9005 5.10203 20.9H5.22915C5.23036 20.8824 5.24607 20.8788 5.24607 20.8606C5.24607 20.8426 5.23036 20.846 5.23036 20.828C5.23036 20.7731 5.26466 20.7518 5.28809 20.7302H5.28862C5.30018 20.7194 5.30886 20.7086 5.30886 20.6937C5.30886 20.6756 5.29306 20.6828 5.29306 20.6648C5.29306 20.6465 5.30814 20.6373 5.31468 20.6259C5.32894 20.6245 5.34571 20.6171 5.36264 20.6086V20.5606C5.35185 20.5594 5.34684 20.5606 5.34013 20.5556C5.34684 20.551 5.35371 20.5516 5.36009 20.548C5.36357 20.5271 5.37141 20.4931 5.37141 20.4751V20.3252V19.9908C5.37141 19.9346 5.3611 19.9372 5.34805 19.9206V19.9204C5.33981 19.9101 5.33096 19.8925 5.323 19.8489C5.28931 19.8483 5.25771 19.8409 5.23723 19.8421C5.25294 19.7253 5.15973 19.7283 5.15973 19.634C5.15973 19.616 5.20668 19.5621 5.21585 19.5275C5.22022 19.5251 5.23036 19.5207 5.24304 19.5158C5.26915 19.5058 5.30648 19.4934 5.3304 19.4891C5.34014 19.4784 5.38721 19.4382 5.38721 19.4053C5.38721 19.3874 5.37892 19.3639 5.36967 19.3479C5.33719 19.3473 5.32232 19.3274 5.31149 19.3257C5.30216 19.3338 5.30216 19.3413 5.29735 19.3473C5.25803 19.2962 5.25395 19.3183 5.25395 19.2857C5.25395 19.2112 5.30886 19.2548 5.30886 19.1913C5.30886 19.1731 5.30094 19.1623 5.30001 19.1526C5.28123 19.1516 5.28123 19.1661 5.26179 19.1661C5.24906 19.1661 5.23593 19.1456 5.22684 19.1188C5.22333 19.1157 5.22022 19.1132 5.21706 19.111V19.1106C5.20034 19.0969 5.1868 19.0857 5.17529 19.0818C5.18216 19.0777 5.18712 19.0787 5.1988 19.0755C5.15589 19.0625 5.15864 19.0096 5.14777 18.9802C5.14155 18.9775 5.13557 18.9788 5.13024 18.9725C5.12838 18.9298 5.12822 18.8854 5.11003 18.8393C5.04284 18.8825 5.10288 18.9346 5.02777 18.9346C5.0226 18.9833 5.02523 19.07 4.99702 19.111C4.99634 19.1119 4.99601 19.1127 4.99557 19.1131C5.00704 19.1152 5.01076 19.1079 5.01076 19.1261C5.01076 19.1441 4.98854 19.1752 4.98151 19.2049C4.97367 19.2407 4.9767 19.2792 4.96882 19.3067C4.96195 19.3301 4.92446 19.3402 4.92446 19.3581C4.92446 19.3764 4.94026 19.3618 4.94026 19.38C4.94026 19.3983 4.90919 19.415 4.9022 19.4327C4.89573 19.4348 4.88797 19.4348 4.88175 19.4365C4.83727 19.4649 4.77771 19.4652 4.72656 19.4638C4.65387 19.3659 4.53286 19.2362 4.48482 19.111C4.48482 19.111 4.48409 19.1092 4.48409 19.1086C4.46591 19.1079 4.45339 19.1092 4.44809 19.1024C4.43153 19.0613 4.39319 19.0261 4.35173 19.0225C4.39715 18.9261 4.24648 18.9564 4.28147 18.8633C4.26397 18.8539 4.24834 18.8544 4.23593 18.8481C4.22555 18.8165 4.23403 18.7959 4.19646 18.7825C4.18915 18.7546 4.17787 18.7292 4.16304 18.7067C4.14567 18.6798 4.12458 18.6574 4.10151 18.6395C4.10814 18.635 4.11723 18.6471 4.11723 18.6288C4.11723 18.6107 4.08422 18.5934 4.06365 18.5797C4.06211 18.5736 4.06179 18.5584 4.05868 18.5526C4.0302 18.5074 3.98337 18.4666 3.96203 18.4205C3.9531 18.4005 3.94882 18.3808 3.94098 18.3707C3.92523 18.352 3.89529 18.3405 3.88349 18.3188C3.88038 18.3131 3.87751 18.3073 3.87468 18.3021L3.87484 18.3015C3.851 18.2526 3.83335 18.1995 3.80785 18.1607C3.78624 18.1281 3.74919 18.0762 3.71375 18.0228C3.6971 17.9972 3.65464 17.9612 3.65464 17.9429C3.65464 17.9366 3.66519 17.9225 3.63064 17.891V17.843C3.64381 17.8362 3.66248 17.8186 3.66248 17.7977C3.66248 17.78 3.65448 17.7697 3.65577 17.7637C3.66838 17.7575 3.6887 17.7478 3.69763 17.7395C3.72102 17.7177 3.75319 17.6754 3.7864 17.6498C3.80409 17.6364 3.82947 17.6375 3.84894 17.6238C3.86074 17.6156 3.86999 17.5864 3.8826 17.5755C3.91125 17.5516 3.94135 17.5227 3.97173 17.4929H3.97205C4.00171 17.4645 4.03161 17.4353 4.06094 17.4104C4.1022 17.375 4.16704 17.3456 4.21003 17.3041C4.28442 17.2314 4.37424 17.1481 4.45961 17.1133C4.48127 17.105 4.50381 17.0965 4.52664 17.087H4.527C4.58842 17.0627 4.65125 17.034 4.69347 16.9887C4.69848 16.9948 4.68543 17.0031 4.7051 17.0031C4.72858 17.0031 4.75787 16.9406 4.76171 16.9278C4.76575 16.9133 4.78906 16.9031 4.79614 16.8894C4.80462 16.8722 4.80022 16.8457 4.81569 16.8276C4.85989 16.7777 4.90874 16.7294 4.95981 16.6828C5.09201 16.5621 5.25201 16.4814 5.3527 16.3926C5.38308 16.3838 5.41319 16.3574 5.44632 16.3418C5.46018 16.3354 5.47795 16.3405 5.48995 16.3375C5.5211 16.3295 5.55488 16.2768 5.57541 16.2442C5.59428 16.2152 5.61977 16.1943 5.64114 16.1761C5.6445 16.1559 5.64656 16.1331 5.65436 16.113C5.66102 16.0958 5.68393 16.0968 5.69476 16.0904C5.70846 16.0823 5.71646 16.0601 5.72458 16.0484C5.74001 16.0249 5.75917 15.9739 5.76369 15.9537C5.7691 15.9472 5.77597 15.948 5.78187 15.9445C5.79323 15.9172 5.80151 15.8759 5.80151 15.858C5.80151 15.8234 5.78898 15.8416 5.82438 15.7834C5.81294 15.7816 5.80927 15.7852 5.80927 15.7671ZM10.884 19.2305C10.884 19.1604 10.8398 19.188 10.8398 19.1504C10.8398 19.139 10.8451 19.1348 10.8488 19.1284C10.8508 19.1248 10.8523 19.1205 10.8523 19.1142C10.8523 19.0445 10.7053 19.0394 10.7126 18.96C10.6901 18.952 10.6255 18.9491 10.6236 18.908L10.4956 18.9081C10.4801 18.9076 10.4252 18.8784 10.4095 18.8784C10.3936 18.8784 10.3298 18.9076 10.2849 18.9169C10.2778 18.9228 10.2716 18.9371 10.2656 18.9416C10.2468 18.9514 10.2272 18.9517 10.2157 18.9613C10.1988 19.003 10.1509 19.0331 10.1329 19.043C10.0901 19.0659 10.0133 19.043 10.0054 19.1162C9.98587 19.1176 9.96183 19.1197 9.94248 19.1284V19.1286C9.93864 19.1303 9.935 19.1326 9.93165 19.1348C9.90167 19.1566 9.87488 19.1797 9.85351 19.2005C9.82518 19.2295 9.80482 19.2687 9.77157 19.2975C9.72325 19.3404 9.6744 19.3863 9.61985 19.4281C9.5984 19.4442 9.56826 19.4447 9.5462 19.454C9.5169 19.4668 9.47961 19.4776 9.45112 19.4904C9.43169 19.4991 9.40458 19.5184 9.38159 19.5335C9.3647 19.5448 9.34995 19.5536 9.34308 19.5536C9.32741 19.5536 9.3527 19.5389 9.33686 19.5389C9.32094 19.5389 9.30187 19.5683 9.29153 19.5729C9.2685 19.5829 9.24163 19.5826 9.22228 19.5845C9.20902 19.59 9.20854 19.6049 9.20308 19.609C9.15953 19.6115 9.10902 19.626 9.06434 19.6286C9.06175 19.6359 9.05674 19.6412 9.05084 19.6453C8.99424 19.6626 8.93375 19.6672 8.87997 19.6935C8.85149 19.7072 8.80357 19.7278 8.77876 19.7296C8.77173 19.7357 8.77189 19.7426 8.76628 19.7471C8.70353 19.7568 8.6407 19.7712 8.57739 19.7738C8.57444 19.7808 8.58074 19.7856 8.56482 19.7856C8.54898 19.7856 8.55525 19.7822 8.55258 19.7713C8.53743 19.8116 8.46284 19.8014 8.43278 19.8093C8.39323 19.8213 8.33048 19.8419 8.27335 19.8465C8.27068 19.8537 8.28337 19.8582 8.26757 19.8582C8.25165 19.8582 8.27702 19.8438 8.26098 19.8438C8.24531 19.8438 8.2483 19.8582 8.24195 19.8582L7.91141 19.8662C7.89795 19.8872 7.86708 19.9019 7.85597 19.9019C7.7548 19.9026 7.7485 19.9091 7.7327 19.9091C7.71686 19.9091 7.68595 19.8946 7.6628 19.8888V19.851C7.6628 19.8438 7.66494 19.8411 7.66745 19.8395C7.66446 19.8405 7.66296 19.8403 7.66296 19.8293C7.66296 19.8113 7.67581 19.8328 7.67581 19.8148C7.67581 19.7967 7.65036 19.7786 7.65036 19.7602C7.65036 19.7421 7.65003 19.7296 7.64276 19.7135H7.591C7.57529 19.7133 7.56664 19.7139 7.55662 19.7076C7.54919 19.658 7.53658 19.6078 7.53363 19.5641C7.5283 19.5609 7.52325 19.5621 7.51888 19.5557C7.51815 19.5484 7.51743 19.541 7.51654 19.5336C7.50882 19.462 7.4982 19.3898 7.49573 19.3172C7.49007 19.3142 7.48543 19.3082 7.48078 19.3017C7.47949 19.2739 7.47314 19.2379 7.47314 19.2195C7.47314 19.2106 7.47149 19.1727 7.46886 19.1284V19.128C7.46591 19.084 7.46215 19.0339 7.45751 18.9979C7.4523 18.9949 7.447 18.9883 7.44155 18.9839C7.45323 18.9717 7.4607 18.9619 7.45961 18.952C7.45121 18.951 7.44155 18.9619 7.44155 18.9438C7.44155 18.9258 7.44826 18.9148 7.4449 18.9092C7.43654 18.8937 7.43525 18.8819 7.42296 18.7824L7.43112 18.7748C7.42979 18.7624 7.42777 18.7491 7.42595 18.7241C7.42393 18.7008 7.42232 18.6669 7.42232 18.6154C7.44013 18.6021 7.45917 18.5802 7.47949 18.5618C7.45121 18.5594 7.42672 18.5594 7.40906 18.5531C7.39706 18.5108 7.39088 18.4321 7.39088 18.4139C7.39088 18.3993 7.38385 18.3777 7.4131 18.3777C7.42886 18.3777 7.4668 18.4068 7.4668 18.4249C7.4668 18.4433 7.46151 18.4567 7.46927 18.4648C7.49622 18.4575 7.5283 18.4573 7.55197 18.4468C7.555 18.4412 7.55403 18.435 7.55997 18.4301C7.64256 18.4047 7.71787 18.3619 7.79254 18.3194V18.319C7.82381 18.3009 7.85525 18.2829 7.8868 18.2659C7.91444 18.2514 7.93096 18.2269 7.94599 18.2196C8.05735 18.1624 8.17137 18.1152 8.27912 18.0553C8.347 18.0171 8.38846 17.9856 8.45824 17.9583C8.48757 17.9464 8.52325 17.9583 8.55092 17.9464C8.57217 17.9375 8.60918 17.9132 8.62494 17.9132C8.6407 17.9132 8.64708 17.9278 8.66288 17.9278C8.67872 17.9278 8.85383 17.8085 8.95201 17.7623C9.00579 17.7368 9.06175 17.7163 9.10765 17.6998C9.14316 17.6881 9.19521 17.652 9.21121 17.652H9.32329C9.33912 17.652 9.36316 17.63 9.37993 17.6226C9.3847 17.6354 9.40009 17.6447 9.40809 17.6441C9.42175 17.6213 9.43622 17.5985 9.4426 17.5769C9.45011 17.552 9.46094 17.5299 9.47359 17.5101V17.5099C9.52102 17.4353 9.59314 17.3933 9.59314 17.369C9.59314 17.3507 9.56155 17.3034 9.56155 17.2854C9.56155 17.2671 9.57965 17.2589 9.59298 17.2433V17.11C9.59137 17.1082 9.5902 17.1063 9.58878 17.1046V17.1044C9.57779 17.088 9.56975 17.0623 9.55351 17.0518C9.52587 17.0337 9.49387 17.0266 9.46539 17.0038C9.44862 16.9901 9.44712 16.9573 9.43052 16.9499C9.3847 16.9291 9.30118 16.8827 9.28543 16.8831H9.18272C9.18187 16.8934 9.18498 16.8969 9.16898 16.8969C9.15323 16.8969 9.15642 16.8934 9.15565 16.8834H9.07597C9.05674 16.9104 9.0125 16.894 8.99355 16.9067C8.98232 16.9141 8.97662 16.9298 8.9691 16.9308C8.94397 16.9363 8.91262 16.9478 8.88716 16.9504C8.88458 16.9576 8.87961 16.9703 8.87383 16.9744C8.85541 16.977 8.83957 16.9918 8.82935 16.996C8.76292 17.0282 8.6965 17.0396 8.63391 17.0512C8.62127 17.0532 8.61456 17.0741 8.60818 17.0759C8.57795 17.086 8.55157 17.0957 8.52704 17.1044V17.1048C8.47751 17.1229 8.43379 17.138 8.37464 17.1457C8.35807 17.1475 8.35335 17.1658 8.34232 17.1704C8.30042 17.1885 8.25112 17.1804 8.21723 17.1969C8.16571 17.2212 8.08361 17.2422 8.01993 17.2701C8.01771 17.277 8.0062 17.2823 8.00062 17.2865C7.98228 17.2889 7.95355 17.2894 7.9369 17.2984C7.92583 17.3049 7.91811 17.3201 7.91177 17.323C7.88809 17.3338 7.85581 17.3397 7.83036 17.3426C7.82789 17.3497 7.82272 17.3548 7.8167 17.3591C7.79759 17.3692 7.77993 17.369 7.75993 17.371C7.75298 17.3768 7.74688 17.384 7.74086 17.3882C7.68434 17.4052 7.63415 17.4272 7.58288 17.4363C7.57569 17.4422 7.57601 17.4491 7.57015 17.4536C7.5388 17.4633 7.50721 17.4707 7.48199 17.4806C7.47985 17.4873 7.47484 17.4929 7.46902 17.4971C7.45298 17.5004 7.43747 17.5045 7.42203 17.5099H7.42159C7.38931 17.5211 7.35803 17.536 7.32498 17.5504C7.3104 17.5384 7.29908 17.5249 7.29044 17.5101C7.24369 17.4313 7.26753 17.3181 7.24704 17.2265C7.24539 17.2192 7.2382 17.2173 7.23262 17.213C7.2382 17.2081 7.24555 17.222 7.24539 17.2038V17.117C7.24171 17.1131 7.23836 17.1087 7.23561 17.1046V17.1044C7.21622 17.0735 7.22009 17.0336 7.22009 16.9914C7.22009 16.9731 7.22616 16.9503 7.22159 16.938C7.25694 16.9034 7.28902 16.8592 7.3148 16.8117C7.30559 16.8102 7.30244 16.8058 7.30244 16.8058C7.31399 16.7945 7.32106 16.7718 7.32741 16.7543C7.28854 16.7341 7.29609 16.7355 7.29609 16.7011V16.7003C7.29618 16.6273 7.32773 16.6827 7.32773 16.6249C7.32773 16.6068 7.3268 16.6004 7.31941 16.5925C7.29925 16.5922 7.28054 16.5922 7.27028 16.5928V16.5611C7.3266 16.4989 7.40325 16.4657 7.47319 16.442C7.48005 16.4372 7.48005 16.4225 7.48603 16.4173C7.51092 16.4085 7.54005 16.4089 7.55577 16.3982C7.60963 16.3619 7.65888 16.3394 7.7049 16.3186C7.73884 16.3032 7.77589 16.2925 7.80656 16.2893C7.83605 16.2448 7.90878 16.2561 7.93892 16.2461C7.98143 16.2306 8.0367 16.2235 8.08603 16.2127C8.09209 16.2127 8.09864 16.2199 8.1725 16.2121C8.17771 16.2319 8.19662 16.2419 8.19662 16.2598C8.19662 16.278 8.19177 16.2928 8.17755 16.3033C8.21076 16.3266 8.25351 16.3752 8.25351 16.4268C8.25351 16.4793 8.2024 16.4685 8.16498 16.523C8.15549 16.5415 8.15048 16.5861 8.12579 16.6011V16.693C8.14321 16.6937 8.14846 16.6987 8.15852 16.7003C8.1607 16.7009 8.16321 16.7011 8.16611 16.7011C8.16757 16.7011 8.16923 16.7009 8.17072 16.7003C8.18438 16.6963 8.19658 16.6735 8.20591 16.6661C8.21622 16.6576 8.2363 16.6573 8.25003 16.6543C8.28809 16.6047 8.36268 16.5686 8.41133 16.575C8.45278 16.5407 8.50543 16.5166 8.5426 16.4829C8.55824 16.4813 8.61367 16.4544 8.61868 16.4447H8.71763C8.78575 16.4449 8.96418 16.2107 9.03371 16.1806C9.08187 16.16 9.27868 15.9369 9.27868 15.9113C9.27868 15.886 9.26458 15.8841 9.23929 15.8625C9.20462 15.8324 9.23258 15.7586 9.19456 15.7359C9.16365 15.7178 9.13258 15.7007 9.11355 15.6852V15.6668C9.14733 15.6584 9.13593 15.6204 9.15747 15.5964C9.16862 15.5837 9.19617 15.5613 9.19617 15.5449C9.19617 15.5268 9.17815 15.5038 9.167 15.4966C9.14648 15.483 9.11852 15.4871 9.09973 15.4773C9.09339 15.473 9.08858 15.4671 9.08506 15.4603C9.04127 15.4579 8.96753 15.4434 8.95177 15.4434H8.44078C8.42519 15.4434 8.22648 15.4652 8.1308 15.4961C8.02878 15.5298 7.90914 15.5679 7.81286 15.598C7.79674 15.6024 7.7803 15.6259 7.76842 15.6293C7.72256 15.645 7.63678 15.6801 7.5727 15.6921C7.56001 15.6938 7.55278 15.7131 7.54644 15.7168C7.52826 15.7268 7.49961 15.7234 7.48268 15.7361C7.46228 15.7514 7.43913 15.7701 7.41456 15.7797C7.37347 15.8489 7.26304 15.8713 7.2171 15.9347C7.20543 15.937 7.18708 15.9369 7.17218 15.9381C7.17137 15.9478 7.17775 15.9624 7.17832 15.9672C7.14854 15.9733 7.12086 15.9803 7.10498 15.9803C7.08826 15.9803 7.06987 15.9575 7.06987 15.9469V15.8326C7.06987 15.8145 7.08276 15.8279 7.08276 15.8098C7.08276 15.7917 7.06971 15.7865 7.06357 15.7744C7.06902 15.7688 7.08276 15.7699 7.08276 15.7518C7.08276 15.7338 7.07581 15.7423 7.07161 15.7361C7.06987 15.7081 7.06357 15.6718 7.06127 15.6414C7.05032 15.6262 7.03197 15.6178 7.03197 15.5995C7.03197 15.5813 7.04409 15.5731 7.05686 15.5574V15.4876H7.02785C6.99553 15.5168 6.95589 15.5303 6.92587 15.5548C6.899 15.5764 6.8567 15.6476 6.81904 15.6342C6.79278 15.6921 6.73799 15.7721 6.72616 15.8228C6.72236 15.8299 6.7125 15.8351 6.70737 15.8355C6.69577 15.8219 6.6969 15.8135 6.68086 15.8135C6.60098 15.8135 6.56882 16.0026 6.57416 16.02C6.57044 16.0257 6.56373 16.0131 6.56373 16.0314C6.56373 16.0495 6.57626 16.0276 6.57626 16.0458C6.57626 16.064 6.56373 16.0366 6.56373 16.0547V16.1519C6.56373 16.1754 6.52054 16.2636 6.49622 16.2892C6.48809 16.3463 6.47993 16.412 6.47533 16.47C6.47452 16.4854 6.45634 16.4848 6.45723 16.4949C6.46579 16.496 6.46894 16.4885 6.46894 16.5067C6.46894 16.5247 6.45234 16.5271 6.45145 16.5352C6.44163 16.5985 6.4186 16.6368 6.41525 16.7003V16.7006C6.41472 16.7091 6.41448 16.7174 6.41432 16.7255C6.41064 16.7318 6.40442 16.7317 6.39921 16.7397C6.39755 16.7552 6.39739 16.763 6.39739 16.7807C6.39739 16.7991 6.39755 16.8067 6.39953 16.8229C6.41173 16.8312 6.41646 16.8318 6.41646 16.8499C6.41646 16.8681 6.39508 16.886 6.3927 16.9076C6.38729 16.9494 6.39646 17.0032 6.38288 17.0296C6.36906 17.0555 6.35331 17.081 6.33735 17.1044V17.1048C6.31658 17.1349 6.29557 17.1625 6.27755 17.1851C6.2929 17.1876 6.30422 17.1868 6.31537 17.1927V17.2282C6.31513 17.2491 6.28741 17.2819 6.26535 17.2905V17.3533C6.27387 17.3544 6.27723 17.3652 6.27795 17.3754H6.307C6.31428 17.368 6.31512 17.3617 6.331 17.3617C6.40409 17.3617 6.38991 17.46 6.41189 17.5101C6.41335 17.5131 6.41488 17.5161 6.41654 17.5186L6.42276 17.801C6.42931 17.8594 6.42931 17.9247 6.43779 17.9818C6.4506 17.9857 6.45444 17.9896 6.45444 18.0075C6.45444 18.0258 6.45125 18.0292 6.44494 18.033C6.45125 18.0365 6.46078 18.0475 6.46098 18.0536C6.45533 18.0594 6.45125 18.0656 6.44183 18.0684C6.45613 18.08 6.46078 18.091 6.46078 18.0984L6.46834 18.3194L6.47989 18.6581C6.48773 18.676 6.49444 18.7004 6.49957 18.7241H6.49977C6.50684 18.758 6.51141 18.7908 6.51141 18.8014V18.9003C6.51141 18.9039 6.51209 18.905 6.51278 18.9053C6.51209 18.9061 6.51141 18.9076 6.51141 18.9111C6.51141 18.9295 6.52211 18.9205 6.52211 18.9205C6.52401 18.9407 6.52401 18.9624 6.52624 18.9831C6.53218 18.9869 6.53456 18.9927 6.53456 18.9927C6.5405 19.0375 6.53997 19.0838 6.54349 19.1284C6.54494 19.1479 6.54725 19.1666 6.55092 19.1851C6.5567 19.2114 6.57468 19.2488 6.57468 19.267C6.57468 19.2846 6.5809 19.3724 6.58696 19.5335C6.58696 19.5363 6.58712 19.5395 6.58733 19.5425C6.58733 19.5498 6.59399 19.5592 6.59763 19.5657C6.59985 19.5866 6.59917 19.6097 6.60175 19.6232C6.60466 19.6378 6.61888 19.6406 6.61888 19.6586C6.61888 19.6769 6.60636 19.6514 6.60636 19.6697C6.60636 19.6878 6.61961 19.7334 6.63173 19.7542C6.63173 19.8609 6.63355 19.9113 6.63517 19.9382C6.63658 19.9603 6.63779 19.9662 6.63779 19.9744C6.63779 19.9927 6.63157 20.014 6.62959 20.0345C6.6184 20.0463 6.57068 20.0688 6.56519 20.0688C6.54923 20.069 6.48515 20.047 6.46955 20.0476H6.29719C6.29626 20.065 6.29719 20.077 6.29185 20.0835L5.96967 20.0907C5.94349 20.1055 5.91238 20.1053 5.879 20.1213C5.87848 20.1305 5.89108 20.1268 5.89108 20.145C5.89108 20.1515 5.8803 20.1492 5.88365 20.1949V20.2016C5.87298 20.2153 5.85351 20.2305 5.84854 20.2433H5.75848C5.74244 20.2431 5.73957 20.2603 5.73957 20.2603C5.74595 20.2839 5.74595 20.3131 5.75201 20.3329C5.74664 20.3384 5.73622 20.3373 5.72757 20.3384V20.3428V20.3645C5.74712 20.3802 5.77836 20.4017 5.7963 20.4208C5.7908 20.4255 5.79048 20.4372 5.79048 20.4372C5.82119 20.4354 5.87153 20.4927 5.86656 20.5247C5.87545 20.526 5.88595 20.525 5.89108 20.5298C5.87949 20.5416 5.87545 20.5407 5.85957 20.5405C5.84373 20.5407 5.75993 20.5396 5.71189 20.5234C5.69662 20.519 5.67614 20.5043 5.66034 20.5043C5.64616 20.5043 5.62559 20.5325 5.62559 20.5513C5.62559 20.5696 5.63294 20.5689 5.63294 20.5689C5.65298 20.5765 5.67238 20.5927 5.6906 20.6028C5.71274 20.6155 5.74894 20.6088 5.77339 20.6149C5.80983 20.6239 5.87581 20.6439 5.91222 20.6509C5.91803 20.6559 5.90393 20.664 5.91965 20.664C5.93553 20.664 5.91024 20.6494 5.92599 20.6494C5.94171 20.6494 5.93234 20.6608 5.93234 20.6608C5.95723 20.664 5.98296 20.6787 6.00725 20.6801C6.01266 20.6851 6.01169 20.6908 6.01403 20.6966C6.04543 20.7073 6.07739 20.712 6.103 20.7167C6.11622 20.7183 6.12236 20.7384 6.1342 20.7409C6.14672 20.7438 6.15969 20.7457 6.17306 20.7473H6.17642C6.21508 20.7513 6.25618 20.752 6.2925 20.7601C6.32009 20.7664 6.39173 20.7699 6.42494 20.7815C6.44082 20.7873 6.45723 20.7946 6.4691 20.7962C6.47468 20.8011 6.47694 20.806 6.47694 20.806C6.59803 20.8191 6.65064 20.8011 6.65112 20.9353V21.0621C6.65989 21.0631 6.66422 21.0621 6.66951 21.0668C6.66422 21.0714 6.65775 21.0714 6.65096 21.0795V21.1049C6.68014 21.1218 6.67274 21.2104 6.67739 21.2486C6.67921 21.2641 6.6887 21.2848 6.69036 21.3006C6.69549 21.3085 6.70167 21.3081 6.70539 21.3148C6.70753 21.3358 6.70955 21.3618 6.71581 21.3735C6.74131 21.4206 6.77751 21.4674 6.7988 21.5167C6.86878 21.5445 6.96022 21.4985 7.01428 21.5566C7.10248 21.4853 6.99795 21.4116 7.10951 21.4116C7.1251 21.4116 7.16046 21.4132 7.17787 21.4203C7.19294 21.4267 7.18842 21.4405 7.20446 21.4405C7.22026 21.4405 7.23593 21.4116 7.25694 21.4107C7.27218 21.3409 7.26991 21.2797 7.3369 21.2407C7.37003 21.1609 7.5104 21.1049 7.51121 21.016C7.51121 21.0087 7.50809 20.9978 7.52393 20.9978C7.53953 20.9978 7.57125 20.9978 7.59246 20.9966C7.59351 20.9118 7.61876 20.9305 7.61876 20.8998C7.61876 20.8816 7.60624 20.8854 7.60624 20.8673C7.60624 20.849 7.61779 20.8371 7.62939 20.8253C7.6727 20.8236 7.75238 20.8091 7.76842 20.8091H7.85024C7.90688 20.7891 7.97525 20.7815 8.03771 20.7699C8.06866 20.7642 8.10131 20.7545 8.1348 20.7474H8.13601C8.15254 20.7444 8.16939 20.7418 8.18611 20.7408C8.24914 20.697 8.35949 20.704 8.43129 20.697C8.4348 20.6912 8.44013 20.6851 8.44559 20.6801C8.49537 20.6787 8.54721 20.6722 8.59468 20.6611C8.64139 20.651 8.68644 20.6341 8.73395 20.6248C8.7624 20.6196 8.80531 20.5696 8.82114 20.5696C8.83674 20.5696 8.82838 20.5687 8.83371 20.573C8.82838 20.5778 8.81476 20.5879 8.81561 20.5974C8.83068 20.5986 8.84377 20.584 8.855 20.581C8.87727 20.552 8.92797 20.5368 8.97456 20.5231C9.00211 20.515 9.03965 20.4897 9.0702 20.4867C9.09327 20.4548 9.13747 20.4674 9.15456 20.4573C9.22066 20.4174 9.29731 20.4007 9.35096 20.3678C9.3786 20.3514 9.41545 20.359 9.44308 20.349C9.44797 20.3471 9.45274 20.3452 9.45783 20.343H9.45836C9.52571 20.3143 9.58684 20.2605 9.65436 20.2299C9.67743 20.22 9.70761 20.2273 9.72418 20.218C9.80567 20.1727 9.87092 20.132 9.94935 20.1022C9.99593 20.0849 10.0401 20.0469 10.0894 20.0291C10.126 19.967 10.1956 19.9704 10.2522 19.9382H10.2524C10.2651 19.9309 10.2773 19.922 10.2882 19.9099C10.3025 19.8937 10.3269 19.8998 10.3443 19.8916C10.4018 19.8643 10.4481 19.8034 10.5025 19.7726C10.5365 19.7537 10.5779 19.7567 10.6147 19.7459C10.6178 19.7406 10.6233 19.7342 10.6291 19.7292C10.647 19.7277 10.6674 19.7198 10.6786 19.7115C10.6816 19.6884 10.6816 19.6664 10.6829 19.6528C10.6873 19.6464 10.7005 19.6442 10.7005 19.626C10.7005 19.6079 10.6923 19.5975 10.6816 19.5933C10.7087 19.5829 10.7254 19.5599 10.7351 19.5336H10.7352C10.7462 19.5042 10.7483 19.4704 10.746 19.443C10.7808 19.43 10.8135 19.4072 10.838 19.3808C10.8497 19.3793 10.8619 19.3793 10.8704 19.3782C10.8715 19.3684 10.8777 19.3612 10.8777 19.3538C10.8777 19.3176 10.8715 19.2817 10.8727 19.2463C10.877 19.2398 10.884 19.2488 10.884 19.2305ZM9.13545 18.2771C9.13161 18.2842 9.12373 18.2915 9.12624 18.302C9.13832 18.2939 9.13929 18.2842 9.13545 18.2771ZM9.03811 18.4095C9.04935 18.4112 9.06506 18.4041 9.07589 18.4026L9.06676 18.3681C9.04749 18.3756 9.04579 18.3916 9.03811 18.4095ZM13.4961 19.0003C13.494 19.0004 13.4899 19.0054 13.4827 19.0039C13.4827 19.0039 13.4919 19.0072 13.4961 19.0003ZM13.514 19.1116C13.514 19.099 13.5065 19.1104 13.5019 19.113C13.5065 19.1143 13.514 19.1242 13.514 19.1116ZM14.6537 18.46L14.6305 18.4597C14.6365 18.4535 14.6433 18.4491 14.6525 18.447C14.6539 18.4514 14.654 18.4558 14.6537 18.46ZM14.5577 18.2976C14.5577 18.2993 14.5577 18.3007 14.5575 18.3019C14.5563 18.3132 14.5491 18.3014 14.544 18.3071C14.5413 18.3515 14.5036 18.4209 14.4657 18.4522C14.4706 18.5079 14.424 18.6051 14.3536 18.6272C14.3541 18.6324 14.3659 18.6362 14.3775 18.6392C14.3515 18.6503 14.3333 18.672 14.3127 18.681C14.304 18.6852 14.2996 18.6952 14.2955 18.7065C14.2933 18.7128 14.2913 18.7194 14.2881 18.7257C14.2727 18.7591 14.2293 18.7903 14.1963 18.8209C14.1836 18.8326 14.1614 18.8322 14.1486 18.8404C14.1361 18.8487 14.1279 18.8721 14.1142 18.8796C14.0889 18.894 14.0703 18.9185 14.0484 18.9296C14.0484 18.9296 14.0524 18.9337 14.0641 18.9364C14.0463 18.9477 14.0454 18.9732 14.0289 18.9906C13.9984 19.023 13.953 19.0491 13.9153 19.0747C13.9153 19.0747 13.9191 19.0787 13.9306 19.0814C13.9171 19.0895 13.9036 19.0995 13.8898 19.1104V19.1111C13.855 19.139 13.821 19.1736 13.7935 19.1985C13.7817 19.2086 13.755 19.2166 13.7411 19.218C13.7089 19.2729 13.6647 19.313 13.6206 19.344C13.5556 19.389 13.5003 19.4581 13.4482 19.5159C13.4213 19.5454 13.3956 19.5719 13.3697 19.5907C13.3481 19.6061 13.3091 19.6097 13.2975 19.6425C13.2595 19.7468 13.1298 19.8429 13.0819 19.9107C13.0695 19.9088 13.0576 19.9131 13.0461 19.9203V19.9206C13.0111 19.9429 12.9809 19.9961 12.9626 20.014C12.9559 20.0203 12.8961 20.0195 12.8867 20.065C12.853 20.0659 12.8297 20.0876 12.7996 20.0892C12.7926 20.0941 12.7855 20.1076 12.7818 20.1129C12.7279 20.131 12.6441 20.2209 12.5885 20.234C12.5595 20.2689 12.4982 20.2805 12.4712 20.3252C12.47 20.3271 12.4691 20.329 12.4683 20.3311C12.4458 20.3342 12.4099 20.3633 12.3903 20.3633C12.3708 20.3633 12.3874 20.355 12.3823 20.349C12.3537 20.3701 12.2882 20.3997 12.2687 20.3997C12.2492 20.3997 12.2309 20.3841 12.2144 20.3685C12.2138 20.356 12.2237 20.3407 12.2251 20.3252H12.2018C12.1824 20.3449 12.1761 20.3818 12.1631 20.4032C12.1573 20.4065 12.1426 20.4055 12.137 20.4124C12.1277 20.4407 12.1114 20.4781 12.0865 20.5077H11.9815V20.3252V20.17C11.9875 20.1619 11.9957 20.1613 12.0024 20.1566C11.9957 20.1518 11.9865 20.1349 11.9865 20.1203C11.9865 19.9825 11.9878 19.9653 11.9944 19.9605C11.9878 19.9559 11.9751 19.9425 11.9558 19.9413V19.9206V19.7491C11.9553 19.7312 11.9846 19.6194 11.9865 19.5468C11.9868 19.5362 11.9873 19.526 11.9875 19.5162C11.9896 19.4165 11.9787 19.3822 11.9787 19.3656C11.9787 19.3475 11.9868 19.3067 11.9947 19.2768C11.9947 19.2768 12.0024 19.2857 12.0024 19.2675C12.0024 19.2493 11.9865 19.2456 11.9865 19.2276C11.9865 19.2094 12.0024 19.1692 12.0049 19.1406C12.0141 19.134 12.0344 19.1232 12.0528 19.1111H12.053C12.0719 19.0992 12.0887 19.0858 12.0887 19.0752C12.0887 19.0571 12.1133 19.0652 12.1203 19.0592V19.0412C12.116 19.0426 12.1082 19.0352 12.0887 19.0352C12.0571 19.0352 12.0719 19.0641 12.0455 19.0641C12.0259 19.0641 12.0203 19.0566 12.0029 19.048V19.015C12.0203 19.0067 12.0267 18.9931 12.0372 18.9797C12.0912 18.9628 12.1453 18.9341 12.201 18.9046C12.21 18.9046 12.2116 18.9195 12.2408 18.9337C12.2464 18.9276 12.2453 18.9337 12.2453 18.9156C12.2453 18.8973 12.2415 18.8973 12.2335 18.8937C12.2492 18.89 12.2649 18.8973 12.2845 18.8973C12.2991 18.8973 12.3122 18.884 12.3439 18.8703C12.3598 18.8655 12.3977 18.8548 12.4058 18.8418C12.4291 18.8391 12.461 18.8431 12.4914 18.8366C12.5236 18.8296 12.5549 18.8031 12.5746 18.8031C12.5941 18.8031 12.61 18.8248 12.6293 18.8248C12.6493 18.8248 12.6975 18.7988 12.7259 18.7861C12.7436 18.7779 12.7475 18.7614 12.7564 18.7474C12.7658 18.7452 12.7729 18.7453 12.7803 18.7426C12.7963 18.7305 12.8114 18.7186 12.8265 18.7066H12.8266C12.8632 18.6783 12.8998 18.6521 12.9453 18.6334C13.0052 18.6093 13.0543 18.557 13.1116 18.515C13.1368 18.5066 13.1624 18.4914 13.1957 18.4715C13.2017 18.4681 13.2229 18.4681 13.2345 18.4598C13.2543 18.4461 13.2645 18.4279 13.2734 18.4065C13.3512 18.381 13.4286 18.3421 13.5057 18.3019C13.6174 18.2446 13.9175 18.1643 13.9257 18.1618C13.9508 18.158 14.0021 18.1361 14.0343 18.1635V18.1286H14.3414C14.3611 18.1281 14.3677 18.1429 14.3824 18.1498C14.3895 18.1498 14.3933 18.1389 14.3965 18.1281C14.4165 18.1635 14.4607 18.1428 14.4831 18.1519C14.5086 18.1621 14.5243 18.1863 14.5577 18.2022V18.2976ZM13.3887 16.5218C13.3887 16.5944 13.3359 16.5409 13.3161 16.6306C13.311 16.6385 13.3031 16.6388 13.2975 16.645C13.2969 16.6564 13.2961 16.6693 13.2944 16.6828C13.2925 16.7031 13.2897 16.7252 13.285 16.7461C13.278 16.7759 13.2253 16.8034 13.2253 16.8215C13.2253 16.8398 13.2409 16.8325 13.2404 16.8414C13.188 16.8719 13.1498 16.8894 13.1066 16.9312C13.0792 16.9584 13.06 16.9944 13.0407 17.0212C13.0111 17.0376 12.9869 17.0624 12.9623 17.0868V17.0869C12.9497 17.0992 12.9369 17.1116 12.9231 17.1229C12.9005 17.1409 12.8647 17.1569 12.8422 17.1833C12.8326 17.1939 12.8341 17.2152 12.8214 17.227C12.7724 17.2724 12.7226 17.3211 12.6801 17.3694C12.6437 17.3944 12.5962 17.4307 12.5572 17.4541C12.5493 17.4597 12.5504 17.4731 12.5472 17.478C12.5419 17.4825 12.5359 17.4872 12.5305 17.4923V17.4926C12.5226 17.4997 12.5156 17.5074 12.5102 17.515C12.5014 17.5181 12.4931 17.5182 12.4866 17.5195C12.4719 17.5386 12.4486 17.553 12.4291 17.5801C12.3996 17.5907 12.3687 17.6143 12.346 17.6352C12.3177 17.6615 12.3063 17.699 12.2794 17.7184C12.2506 17.7287 12.206 17.7579 12.1867 17.7579C12.1671 17.7579 12.1538 17.7361 12.1283 17.7271C12.1356 17.6884 12.158 17.668 12.1592 17.6452C12.1627 17.5877 12.1651 17.5544 12.1679 17.4928C12.17 17.4536 12.1721 17.4024 12.1746 17.3258C12.1746 17.2994 12.1739 17.2652 12.206 17.239C12.1994 17.234 12.1946 17.2281 12.1839 17.227C12.1828 17.2172 12.1914 17.2076 12.2034 17.1942C12.1982 17.1595 12.2219 17.1056 12.2219 17.0874V17.0869V17.0868V16.9332C12.2219 16.9149 12.2701 16.8807 12.3003 16.8531C12.2963 16.8229 12.2721 16.8269 12.2461 16.8274C12.2613 16.7878 12.2533 16.7412 12.2711 16.7021C12.2735 16.6972 12.2755 16.6899 12.2787 16.6828V16.6825C12.2837 16.6713 12.2907 16.6588 12.3036 16.6498C12.3588 16.6127 12.4548 16.5498 12.5298 16.5289C12.5371 16.5246 12.5355 16.5192 12.5387 16.5122C12.5571 16.5078 12.6354 16.5223 12.6474 16.4954C12.7255 16.4786 12.7945 16.4521 12.8681 16.4295C12.8877 16.4241 12.9224 16.4295 12.9447 16.4248C12.953 16.4232 12.9653 16.416 12.9687 16.4011C13.0162 16.3984 13.1026 16.3839 13.1221 16.3839C13.19 16.3839 13.3459 16.4521 13.3685 16.4593C13.3804 16.4803 13.3887 16.5038 13.3887 16.5218ZM15.1587 17.4214C15.142 17.4093 15.1047 17.422 15.0742 17.4078C15.067 17.3966 15.0675 17.3807 15.0478 17.381H15.0146C14.9963 17.418 14.9824 17.4093 14.9735 17.4093C14.9049 17.4093 14.8189 17.3734 14.7512 17.3535C14.6992 17.3381 14.6326 17.3443 14.5788 17.3416C14.5718 17.3375 14.5654 17.3317 14.5615 17.3251C14.5318 17.3153 14.4876 17.3078 14.4679 17.3078C14.4482 17.3078 14.3658 17.3226 14.3199 17.3245C14.1504 17.4098 13.9312 17.395 13.745 17.4189C13.7362 17.4247 13.7366 17.4319 13.7296 17.4359C13.7069 17.4386 13.672 17.4457 13.6525 17.4457C13.6171 17.4457 13.6072 17.4242 13.5858 17.4066C13.6363 17.3901 13.6915 17.3232 13.6894 17.2548C13.7403 17.2104 13.8067 17.1382 13.8573 17.0869V17.0868C13.8684 17.0758 13.8786 17.0657 13.888 17.0568C13.9039 17.0274 13.9394 16.9468 13.9904 16.9615C14.0596 16.9097 14.0683 16.8581 14.1107 16.7946C14.0994 16.7926 14.0955 16.7888 14.0955 16.7888C14.1279 16.7713 14.1457 16.7268 14.17 16.6831C14.1799 16.6647 14.1912 16.6465 14.2052 16.6303L14.2197 16.5336C14.2197 16.5157 14.1961 16.4928 14.1961 16.4747C14.1961 16.4565 14.243 16.367 14.2589 16.323L14.2668 16.0826C14.2658 16.0751 14.2237 15.9922 14.1845 15.9922C14.1647 15.9922 14.1687 16.0066 14.1491 16.0066C14.0962 16.0066 14.0841 15.9565 14.0421 15.9217C13.9948 15.9151 13.9784 15.9063 13.935 15.8882C13.9077 15.877 13.8938 15.8422 13.8731 15.8277C13.8156 15.7851 13.7015 15.7454 13.6817 15.7458H13.5356C13.5175 15.7171 13.425 15.7018 13.3692 15.7018C13.3494 15.7018 13.3064 15.7025 13.0947 15.709C13.0701 15.709 13.0393 15.7144 13.0156 15.7181C12.9991 15.7208 12.9919 15.7409 12.9842 15.7428C12.9291 15.7553 12.8477 15.7743 12.8282 15.7743C12.8205 15.7743 12.7694 15.7581 12.7694 15.7235C12.7694 15.6683 12.801 15.7025 12.8391 15.6411V15.6153C12.7694 15.6283 12.7535 15.6021 12.7535 15.5593V15.4015C12.7535 15.3526 12.7152 15.3762 12.6792 15.3461C12.6135 15.4061 12.5513 15.3779 12.49 15.4262H12.3799C12.3473 15.4562 12.3173 15.4842 12.2865 15.4942C12.2728 15.5339 12.2424 15.5607 12.2005 15.5811C12.19 15.5944 12.1794 15.6441 12.1453 15.6614C12.1268 15.7041 12.0955 15.7401 12.0771 15.7763C12.0724 15.7832 12.0568 15.7902 12.0504 15.7981C12.0179 15.8847 11.9311 16.0016 11.8783 16.0767C11.8251 16.0604 11.7671 16.1855 11.7056 16.1684C11.6801 16.2117 11.6402 16.2414 11.6195 16.2714C11.5785 16.3314 11.5756 16.3637 11.5257 16.4216C11.5119 16.4389 11.5151 16.4677 11.5124 16.4814C11.5096 16.495 11.4839 16.5113 11.4783 16.5241C11.4518 16.5784 11.4253 16.617 11.4036 16.6716C11.4022 16.6755 11.4005 16.6794 11.3982 16.6828V16.6831C11.3853 16.7053 11.3618 16.7268 11.3537 16.7515C11.349 16.7651 11.3561 16.7892 11.3491 16.8019C11.3402 16.8181 11.3214 16.8368 11.3145 16.8608C11.3066 16.8878 11.3045 16.9195 11.3045 16.9485C11.3045 17.0285 11.3094 17.0356 11.3094 17.0356C11.3082 17.0526 11.3079 17.0695 11.3079 17.0866V17.0868C11.3082 17.1352 11.3127 17.1839 11.3145 17.2329C11.3211 17.241 11.3281 17.2426 11.3281 17.2608C11.3281 17.2787 11.3126 17.3263 11.3019 17.3539C11.2892 17.3858 11.266 17.411 11.2502 17.4365C11.2615 17.4386 11.2653 17.4423 11.2653 17.4423C11.2543 17.4487 11.2429 17.4695 11.234 17.4926C11.2248 17.5168 11.2184 17.5436 11.2184 17.5582C11.2184 17.5762 11.2184 17.581 11.2203 17.5867C11.211 17.6001 11.1977 17.6077 11.1968 17.6233C11.1908 17.7032 11.179 17.8377 11.179 17.8558C11.179 17.8731 11.1834 17.8811 11.1564 17.9051V17.9384C11.2206 17.9339 11.2421 17.9896 11.2349 18.04H11.2713C11.2807 18.0244 11.2849 18.0119 11.2984 18.0113C11.3047 18.0312 11.3124 18.0627 11.3124 18.0809C11.3124 18.0988 11.3045 18.1026 11.3045 18.2332C11.3045 18.2405 11.2891 18.2361 11.2891 18.2543V18.3019V18.3573C11.2891 18.3756 11.281 18.414 11.2753 18.4431C11.2734 18.4501 11.2653 18.4366 11.2653 18.4547C11.2653 18.4728 11.281 18.4472 11.281 18.4656C11.281 18.4836 11.2653 18.5087 11.2627 18.5296C11.2581 18.5363 11.2498 18.519 11.2498 18.5371V18.6695C11.2498 18.6736 11.2483 18.6872 11.2461 18.7065C11.2377 18.777 11.2194 18.9256 11.2234 18.9869C11.2116 19.0002 11.2028 18.9992 11.2028 19.0171C11.2028 19.0352 11.2263 19.0461 11.2266 19.0592C11.2196 19.0652 11.2028 19.0752 11.2037 19.0849C11.2143 19.0861 11.2184 19.0752 11.2184 19.0933C11.2184 19.1034 11.2138 19.1079 11.2092 19.1111C11.206 19.1136 11.2028 19.1155 11.2028 19.1187L11.1831 19.5159L11.1797 19.589C11.1725 19.595 11.1676 19.5942 11.1568 19.595C11.1507 19.7253 11.1416 19.8491 11.1363 19.9206V19.9208C11.1337 19.9543 11.1321 19.9767 11.1321 19.9825C11.1321 20.0005 11.1321 20.0546 11.1295 20.083C11.1189 20.1022 11.1087 20.0929 11.1087 20.1129C11.1087 20.1312 11.1186 20.1525 11.1321 20.1572C11.1253 20.1613 11.1098 20.1613 11.1006 20.1712C11.1098 20.1811 11.1167 20.1748 11.1167 20.193C11.1167 20.2109 11.093 20.2147 11.0943 20.2246C11.1048 20.2255 11.1098 20.2319 11.1167 20.2365C11.1098 20.2413 11.1006 20.2582 11.1006 20.2654L11.0987 20.3252L11.0852 20.7155C11.0852 20.7195 11.0839 20.7251 11.081 20.7297C11.0792 20.7328 11.0765 20.7358 11.0732 20.7373C11.0812 20.7409 11.0852 20.73 11.0852 20.7482C11.0852 20.7663 11.0695 20.739 11.0695 20.7572V20.8571C11.0695 20.8608 11.0685 20.8635 11.0674 20.8654C11.0686 20.8653 11.0695 20.8663 11.0695 20.8733V20.9732C11.0695 20.9765 11.0702 20.9779 11.0711 20.9785C11.0702 20.979 11.0695 20.9804 11.0695 20.9839C11.0695 21.0021 11.0827 20.9932 11.0827 20.9932C11.0852 21.0278 11.093 21.0719 11.1033 21.1068C11.1733 21.1469 11.2425 21.1896 11.3147 21.2172C11.3571 21.2323 11.4383 21.1989 11.4707 21.2525C11.4796 21.256 11.485 21.2634 11.5044 21.2634C11.5242 21.2634 11.6271 21.2271 11.6465 21.2271H11.7702C11.7898 21.2271 11.9042 21.1981 11.924 21.1981C11.972 21.1981 11.9425 21.2271 11.9787 21.2271C11.9944 21.2271 12.02 21.1994 12.0474 21.1848C12.069 21.1731 12.0949 21.1769 12.1066 21.1734C12.1321 21.1642 12.1739 21.1606 12.2034 21.1515C12.2222 21.1463 12.2281 21.1319 12.2346 21.1271C12.2886 21.1254 12.3442 21.118 12.3918 21.1081C12.4003 21.1032 12.4008 21.0956 12.4074 21.0907C12.4531 21.0891 12.5101 21.0836 12.5531 21.0719C12.5877 21.0625 12.6289 21.0473 12.663 21.0353C12.6896 21.0265 12.7261 20.993 12.7517 20.9895C12.8661 20.9712 12.9784 20.8959 13.0818 20.8684C13.0901 20.8638 13.0982 20.849 13.1054 20.844C13.1515 20.835 13.1944 20.8141 13.2387 20.7959C13.266 20.7849 13.2999 20.75 13.3245 20.7426C13.3423 20.7374 13.3637 20.7362 13.382 20.7297C13.387 20.728 13.3917 20.7257 13.3959 20.723C13.4391 20.6966 13.5258 20.648 13.5918 20.6216C13.5999 20.6169 13.6077 20.6021 13.6147 20.5971C13.6372 20.5956 13.6666 20.5931 13.6784 20.5849C13.6979 20.5714 13.7206 20.5387 13.7413 20.5241C13.799 20.4814 13.8783 20.4469 13.9373 20.4034C13.9569 20.3891 13.9692 20.3629 13.9917 20.3501C14.0038 20.3431 14.0173 20.3347 14.0319 20.3254V20.3252C14.0828 20.2929 14.1443 20.2489 14.1807 20.2117C14.1975 20.1945 14.2157 20.1771 14.2342 20.1689C14.2479 20.1626 14.2744 20.1592 14.2881 20.1481C14.2885 20.0913 14.3659 20.0883 14.3845 20.0691C14.416 20.0375 14.4388 20 14.4761 19.9739C14.4773 19.9488 14.5027 19.9365 14.5265 19.9206H14.5267C14.5309 19.9176 14.535 19.9148 14.5385 19.912C14.542 19.9038 14.5409 19.891 14.5487 19.8856C14.5721 19.8692 14.5933 19.8589 14.6088 19.8443C14.6176 19.8361 14.6255 19.8264 14.6396 19.8229C14.6624 19.7884 14.7057 19.7637 14.7423 19.7279C14.7611 19.7014 14.8005 19.6719 14.8153 19.6386C14.8218 19.6375 14.8397 19.636 14.8444 19.6287C14.87 19.5919 14.9024 19.5517 14.9343 19.5159C14.9578 19.4894 14.9808 19.4658 15.0013 19.447C15.0049 19.4267 15.0322 19.3723 15.0499 19.3632C15.0636 19.357 15.0857 19.3463 15.0876 19.3425C15.1014 19.3172 15.0988 19.2818 15.123 19.259C15.1335 19.2496 15.1474 19.2409 15.1587 19.2325V17.4214Z" fill="#424242"/>
<path d="M14.5436 29.1328H14.8475C15.1662 29.1328 15.1451 28.8423 15.1451 28.7154C15.1451 28.4581 15.0995 28.3072 14.8549 28.3072H14.5436V29.1328ZM14.7301 28.4341H14.8265C14.9562 28.4341 14.9562 28.5678 14.9562 28.72C14.9562 28.9269 14.9339 29.0058 14.8203 29.0058H14.7301V28.4341ZM13.2 29.1328V28.529H13.2024L13.4458 29.1328H13.6915V28.3072H13.5174V28.879H13.5149L13.2778 28.3072H13.0258V29.1328H13.2ZM11.9601 28.8229H11.7822L11.8674 28.4661H11.8699L11.9601 28.8229ZM11.6945 29.1328L11.7451 28.9498H11.9996L12.049 29.1328H12.2454L12.0033 28.3072H11.7575L11.5104 29.1328H11.6945ZM10.8054 29.1328V28.9955H10.5262V28.3072H10.3397V29.1328H10.8054ZM9.08499 28.6376V28.3072H8.89848V29.1328H9.08499V28.7645H9.29868V29.1328H9.48515V28.3072H9.29868V28.6376H9.08499ZM7.81295 29.1465C7.98713 29.1465 8.0822 29.0756 8.0822 28.8549H7.89816C7.89569 28.9201 7.89941 29.023 7.81295 29.023C7.70794 29.023 7.69436 28.9315 7.69436 28.72C7.69436 28.5084 7.70794 28.4169 7.81295 28.4169C7.8685 28.4169 7.88955 28.4581 7.88955 28.5678H8.0723C8.07978 28.3906 8.00313 28.2935 7.81295 28.2935C7.50539 28.2935 7.50539 28.5016 7.50539 28.72C7.50539 28.9361 7.50539 29.1465 7.81295 29.1465ZM6.68911 28.9075C6.68911 28.6479 6.31363 28.6617 6.31363 28.505C6.31363 28.4478 6.34943 28.4169 6.40996 28.4169C6.48531 28.4169 6.49642 28.4798 6.49642 28.5415H6.678C6.69036 28.3689 6.60018 28.2935 6.4186 28.2935C6.19133 28.2935 6.12466 28.3964 6.12466 28.5256C6.12466 28.7715 6.50014 28.7806 6.50014 28.9292C6.50014 28.9853 6.46927 29.023 6.40628 29.023C6.30373 29.023 6.30006 28.9567 6.30006 28.8778H6.11351C6.10365 29.0208 6.14689 29.1465 6.37784 29.1465C6.5199 29.1465 6.68911 29.1213 6.68911 28.9075ZM4.75626 28.3072V28.4444H4.96378V29.1328H5.15028V28.4444H5.3578V28.3072H4.75626ZM3.79675 28.3072V28.8812C3.79675 28.9727 3.75969 29.023 3.67816 29.023C3.61024 29.023 3.56329 28.983 3.56329 28.8812V28.3072H3.37679V28.8926C3.37679 29.0481 3.47557 29.1465 3.68062 29.1465C3.9079 29.1465 3.98325 29.0162 3.98325 28.8926V28.3072H3.79675ZM2.56794 29.1328V29.0058H2.25792V28.7645H2.53456V28.6376H2.25792V28.4341H2.55804V28.3072H2.07137V29.1328H2.56794ZM0.628906 29.1328H0.932745C1.25141 29.1328 1.23044 28.8423 1.23044 28.7154C1.23044 28.4581 1.18475 28.3072 0.940179 28.3072H0.628906V29.1328ZM0.815411 28.4341H0.911775C1.04143 28.4341 1.04143 28.5678 1.04143 28.72C1.04143 28.9269 1.01921 29.0058 0.905594 29.0058H0.815411V28.4341Z" fill="#DFDFDF"/>
<path d="M15.144 27.0216C15.1535 26.8736 15.0561 26.7923 14.8994 26.7923C14.6379 26.7923 14.6284 26.9736 14.6284 27.152C14.6284 27.4205 14.6591 27.5234 14.928 27.5234C14.9916 27.5234 15.1006 27.5077 15.144 27.4999V27.1412H14.8974V27.25H14.9842V27.4068C14.9598 27.4147 14.9312 27.4205 14.9047 27.4205C14.8137 27.4205 14.7904 27.3813 14.7904 27.1598C14.7904 27.0226 14.7904 26.8981 14.8899 26.8981C14.9747 26.8981 14.9863 26.9559 14.9852 27.0216H15.144ZM13.8665 27.5117V26.9942H13.8686L14.0772 27.5117H14.2879V26.804H14.1386V27.2941H14.1365L13.9332 26.804H13.7172V27.5117H13.8665ZM13.2126 26.804V27.2961C13.2126 27.3745 13.1808 27.4176 13.111 27.4176C13.0528 27.4176 13.0125 27.3833 13.0125 27.2961V26.804H12.8527V27.3059C12.8527 27.4391 12.9374 27.5234 13.1131 27.5234C13.3079 27.5234 13.3725 27.4117 13.3725 27.3059V26.804H13.2126ZM11.9987 27.5117H12.2591C12.5322 27.5117 12.5143 27.2628 12.5143 27.1539C12.5143 26.9334 12.4751 26.804 12.2654 26.804H11.9987V27.5117ZM12.1585 26.9128H12.2411C12.3523 26.9128 12.3523 27.0275 12.3523 27.1579C12.3523 27.3352 12.3332 27.4029 12.2358 27.4029H12.1585V26.9128ZM11.7122 27.5117V27.394H11.4729V26.804H11.313V27.5117H11.7122ZM10.964 26.804H10.8042V27.5117H10.964V26.804ZM10.2286 27.5117C10.2964 27.5117 10.4647 27.5039 10.4647 27.3245C10.4647 27.2274 10.435 27.1598 10.3218 27.1451V27.1432C10.4086 27.1275 10.4519 27.0686 10.4519 26.9873C10.4519 26.8364 10.3514 26.804 10.2296 26.804H9.94597V27.5117H10.2286ZM10.1058 26.9128H10.2042C10.2582 26.9128 10.2964 26.951 10.2964 27.003C10.2964 27.0716 10.2476 27.0932 10.2127 27.0932H10.1058V26.9128ZM10.1058 27.202H10.1989C10.2794 27.202 10.3048 27.2402 10.3048 27.3029C10.3048 27.4019 10.2286 27.4029 10.1947 27.4029H10.1058V27.202ZM9.17449 27.5117V26.9942H9.17664L9.38516 27.5117H9.59587V26.804H9.44658V27.2941H9.44451L9.2412 26.804H9.02524V27.5117H9.17449ZM8.70694 27.5117V27.4029H8.44116V27.1961H8.67837V27.0873H8.44116V26.9128H8.69849V26.804H8.28132V27.5117H8.70694ZM7.51203 27.5117V26.9942H7.51413L7.7227 27.5117H7.93336V26.804H7.78411V27.2941H7.78197L7.5787 26.804H7.36274V27.5117H7.51203ZM7.04443 27.5117V27.4029H6.7787V27.1961H7.01587V27.0873H6.7787V26.9128H7.03595V26.804H6.61882V27.5117H7.04443ZM6.29102 27.3186C6.29102 27.0961 5.96916 27.1079 5.96916 26.9736C5.96916 26.9246 5.99987 26.8981 6.05175 26.8981C6.11631 26.8981 6.12585 26.952 6.12585 27.0049H6.28148C6.29207 26.857 6.21478 26.7923 6.05914 26.7923C5.86435 26.7923 5.80718 26.8805 5.80718 26.9913C5.80718 27.202 6.12904 27.2098 6.12904 27.3372C6.12904 27.3852 6.10258 27.4176 6.04855 27.4176C5.96068 27.4176 5.95752 27.3607 5.95752 27.2931H5.79765C5.7892 27.4156 5.82625 27.5234 6.02423 27.5234C6.14597 27.5234 6.29102 27.5019 6.29102 27.3186ZM5.12152 27.0873V26.804H4.96165V27.5117H5.12152V27.1961H5.30468V27.5117H5.46451V26.804H5.30468V27.0873H5.12152ZM4.41045 27.5234C4.55971 27.5234 4.64124 27.4627 4.64124 27.2735H4.4835C4.48136 27.3294 4.48455 27.4176 4.41045 27.4176C4.32043 27.4176 4.3088 27.3392 4.3088 27.1579C4.3088 26.9765 4.32043 26.8981 4.41045 26.8981C4.45809 26.8981 4.47607 26.9334 4.47607 27.0275H4.63276C4.6391 26.8756 4.57348 26.7923 4.41045 26.7923C4.14682 26.7923 4.14682 26.9706 4.14682 27.1579C4.14682 27.3431 4.14682 27.5234 4.41045 27.5234ZM3.62104 27.246H3.46855L3.54161 26.9403H3.54375L3.62104 27.246ZM3.3934 27.5117L3.4368 27.3549H3.6549L3.69724 27.5117H3.86557L3.65809 26.804H3.44738L3.23567 27.5117H3.3934ZM2.25991 27.5117H2.43352L2.56585 26.9942H2.56799L2.68762 27.5117H2.86443L3.03381 26.804H2.87712L2.78185 27.301H2.77971L2.66536 26.804H2.47692L2.35623 27.301H2.35413L2.25462 26.804H2.09049L2.25991 27.5117ZM1.51284 27.2186H1.55409C1.67692 27.2186 1.66843 27.2902 1.66843 27.3745C1.66843 27.4205 1.66423 27.4686 1.6854 27.5117H1.84209C1.82726 27.4823 1.82407 27.349 1.82407 27.3039C1.82407 27.1765 1.72031 27.1686 1.6854 27.1647V27.1627C1.78912 27.1471 1.82726 27.0795 1.82726 26.9892C1.82726 26.8687 1.75736 26.804 1.64835 26.804H1.35296V27.5117H1.51284V27.2186ZM1.51284 26.9128H1.58375C1.63457 26.9128 1.66528 26.9383 1.66528 27.006C1.66528 27.051 1.64726 27.1098 1.58375 27.1098H1.51284V26.9128ZM1.0389 27.5117V27.4029H0.77316V27.1961H1.01029V27.0873H0.77316V26.9128H1.03041V26.804H0.613281V27.5117H1.0389Z" fill="#DFDFDF"/>
<path d="M15.1648 26.0283V25.8741H14.7883V25.5812H15.1243V25.427H14.7883V25.1798H15.1528V25.0257H14.5619V26.0283H15.1648ZM13.2785 25.427V25.0257H13.0521V26.0283H13.2785V25.5812H13.538V26.0283H13.7645V25.0257H13.538V25.427H13.2785ZM11.9727 26.0449C12.1841 26.0449 12.2996 25.9589 12.2996 25.6909H12.0761C12.0731 25.77 12.0776 25.895 11.9727 25.895C11.8452 25.895 11.8287 25.7839 11.8287 25.527C11.8287 25.2701 11.8452 25.159 11.9727 25.159C12.0401 25.159 12.0656 25.209 12.0656 25.3423H12.2876C12.2966 25.1271 12.2036 25.009 11.9727 25.009C11.5992 25.009 11.5992 25.2617 11.5992 25.527C11.5992 25.7894 11.5992 26.0449 11.9727 26.0449ZM10.8468 25.7548C10.8468 25.4395 10.3908 25.4561 10.3908 25.266C10.3908 25.1965 10.4343 25.159 10.5078 25.159C10.5993 25.159 10.6128 25.2354 10.6128 25.3104H10.8333C10.8483 25.1007 10.7388 25.009 10.5183 25.009C10.2424 25.009 10.1614 25.134 10.1614 25.291C10.1614 25.5895 10.6173 25.6006 10.6173 25.7811C10.6173 25.8491 10.5798 25.895 10.5033 25.895C10.3788 25.895 10.3743 25.8144 10.3743 25.7186H10.1479C10.1359 25.8922 10.1883 26.0449 10.4688 26.0449C10.6413 26.0449 10.8468 26.0144 10.8468 25.7548ZM9.38341 25.0257H9.15691V26.0283H9.38341V25.0257ZM8.45699 26.0283V25.8616H8.11808V25.0257H7.89161V26.0283H8.45699ZM6.73573 26.0449C7.10919 26.0449 7.10919 25.7894 7.10919 25.527C7.10919 25.2617 7.10919 25.009 6.73573 25.009C6.36228 25.009 6.36228 25.2617 6.36228 25.527C6.36228 25.7894 6.36228 26.0449 6.73573 26.0449ZM6.73573 25.895C6.60826 25.895 6.59173 25.7839 6.59173 25.527C6.59173 25.2701 6.60826 25.159 6.73573 25.159C6.86321 25.159 6.87973 25.2701 6.87973 25.527C6.87973 25.7839 6.86321 25.895 6.73573 25.895ZM5.08943 25.427V25.0257H4.86297V26.0283H5.08943V25.5812H5.34891V26.0283H5.57537V25.0257H5.34891V25.427H5.08943ZM3.41909 25.0257V25.1923H3.67109V26.0283H3.89755V25.1923H4.14951V25.0257H3.41909ZM2.5407 25.6519H2.3247L2.42822 25.2188H2.43121L2.5407 25.6519ZM2.21824 26.0283L2.27973 25.8061H2.5887L2.6487 26.0283H2.88717L2.59319 25.0257H2.29472L1.99476 26.0283H2.21824ZM0.85836 25.4548H0.855371V25.0257H0.628906V26.0283H0.855371V25.5145H0.85836L1.11784 26.0283H1.37282L1.06984 25.4757L1.37282 25.0257H1.12386L0.85836 25.4548Z" fill="#DFDFDF"/>
</g>
</g>
</svg>