<svg width="81" height="30" viewBox="0 0 81 30" fill="none" xmlns="http://www.w3.org/2000/svg">
<g style="mix-blend-mode:screen" clip-path="url(#clip0_2051_62)">
<path d="M70.2323 15.1864C69.8658 15.1864 69.5568 15.3316 69.3051 15.6216V14.1348H68.3594V14.5833H68.8138V17.3787H68.3594V17.8272H69.3051V17.4423C69.3791 17.5505 69.5007 17.6486 69.6695 17.737C69.8386 17.8254 70.0252 17.8696 70.2294 17.8696C70.5938 17.8696 70.8927 17.7392 71.1262 17.4779C71.3597 17.2166 71.4762 16.8949 71.4762 16.5125C71.4762 16.1301 71.3568 15.7937 71.1183 15.5501C70.8795 15.3068 70.5841 15.1849 70.2323 15.1849V15.1864ZM70.7075 17.1695C70.5455 17.3359 70.3528 17.4193 70.1289 17.4193C69.9051 17.4193 69.7278 17.341 69.5651 17.1843C69.4024 17.0276 69.3209 16.8159 69.3209 16.5485C69.3209 16.2563 69.4045 16.0331 69.5719 15.8782C69.7392 15.7233 69.9291 15.6457 70.1425 15.6457C70.356 15.6457 70.548 15.7204 70.7089 15.8699C70.8702 16.0194 70.9506 16.2297 70.9506 16.5003C70.9506 16.771 70.8694 17.0031 70.7075 17.1692V17.1695Z" fill="#DFDFDF"/>
<path d="M39.3953 16.0793C39.3953 15.8561 39.3756 15.6869 39.3359 15.5708C39.2962 15.455 39.2219 15.3616 39.1128 15.2908C39.0034 15.22 38.8643 15.1844 38.6955 15.1844C38.4241 15.1844 38.1381 15.3066 37.837 15.5506V14.1328H36.873V14.5813H37.3354V17.3767H36.873V17.8253H38.2811V17.3767H37.8374V15.9697C38.1367 15.7483 38.3834 15.638 38.5772 15.638C38.653 15.638 38.7184 15.6592 38.7742 15.7016C38.8296 15.744 38.8636 15.7983 38.8757 15.8637C38.8879 15.9291 38.8943 16.0592 38.8943 16.254V17.8256H39.8319V17.3771H39.396V16.079L39.3953 16.0793Z" fill="#DFDFDF"/>
<path d="M41.015 15.2578H40.1172V15.7063H40.5134V17.379H40.1172V17.8279H41.4112V17.379H41.015V15.2578Z" fill="#DFDFDF"/>
<path d="M35.9371 14.2171C35.7451 14.1621 35.4562 14.1348 35.0708 14.1348H33.7578V14.5966H34.2201V17.3658H33.7578V17.8276H35.2503V17.3658H34.7747V16.4151H35.0282C35.3472 16.4151 35.5849 16.4015 35.7426 16.3742C35.9003 16.3469 36.0419 16.2933 36.1678 16.2135C36.2936 16.1337 36.3991 16.0105 36.4849 15.843C36.5704 15.6755 36.6129 15.4868 36.6129 15.2762C36.6129 15.0124 36.5482 14.7835 36.4188 14.5898C36.2893 14.396 36.1288 14.2717 35.9368 14.2167L35.9371 14.2171ZM35.842 15.8142C35.7029 15.9177 35.453 15.9695 35.0919 15.9695H34.7747V14.597H35.118C35.3733 14.597 35.5556 14.612 35.6647 14.6422C35.7737 14.6724 35.8653 14.7421 35.9393 14.8521C36.0133 14.9617 36.0501 15.1001 36.0501 15.2662C36.0501 15.5282 35.9804 15.7107 35.8413 15.8142H35.842Z" fill="#DFDFDF"/>
<path d="M73.9989 16.189C73.9989 15.9802 73.9871 15.8278 73.9635 15.7322C73.9399 15.6366 73.8934 15.5478 73.8248 15.4655C73.7561 15.3832 73.6517 15.316 73.5119 15.2639C73.3717 15.2118 73.2058 15.1855 73.0138 15.1855C72.4907 15.1855 72.1228 15.3857 71.9097 15.7854L72.3906 15.913C72.5032 15.7113 72.6856 15.6104 72.9373 15.6104C73.0836 15.6104 73.2019 15.6387 73.2924 15.6952C73.3832 15.752 73.4408 15.8156 73.4654 15.8864C73.4901 15.9572 73.5023 16.0582 73.5023 16.189V16.4438C73.2788 16.2986 73.0471 16.226 72.8075 16.226C72.5504 16.226 72.3309 16.3047 72.1485 16.4621C71.9662 16.6199 71.875 16.8179 71.875 17.0569C71.875 17.2959 71.9608 17.4889 72.1328 17.641C72.3044 17.7933 72.5065 17.8695 72.7389 17.8695C73.0381 17.8695 73.3095 17.7509 73.5523 17.5137V17.8271H74.4294V17.3786H73.9989V16.1893V16.189ZM73.5023 17.1712C73.2859 17.3764 73.056 17.4792 72.8129 17.4792C72.672 17.4792 72.5604 17.4386 72.4786 17.357C72.3967 17.2758 72.3559 17.1748 72.3559 17.0544C72.3559 16.925 72.4028 16.8201 72.4961 16.7385C72.5894 16.6569 72.7056 16.6163 72.8447 16.6163C73.0667 16.6163 73.2859 16.7011 73.5023 16.8711V17.1709V17.1712Z" fill="#DFDFDF"/>
<path d="M40.5301 14.598C40.5891 14.6584 40.6609 14.6882 40.7453 14.6882C40.8297 14.6882 40.8994 14.6583 40.9592 14.599C41.0192 14.5397 41.0489 14.4675 41.0489 14.3827C41.0489 14.2979 41.0189 14.226 40.9592 14.1678C40.8994 14.1092 40.8279 14.0801 40.7453 14.0801C40.657 14.0801 40.5844 14.1103 40.5272 14.1703C40.47 14.2303 40.4414 14.3011 40.4414 14.3827C40.4414 14.4643 40.4711 14.5376 40.5301 14.5976V14.598Z" fill="#DFDFDF"/>
<path d="M80.5417 17.3791V14.1348H79.5484V14.5833H80.0397V15.6C79.7826 15.324 79.4815 15.186 79.1361 15.186C78.8104 15.186 78.5183 15.3082 78.2594 15.5522C78.0005 15.7966 77.8711 16.1301 77.8711 16.5532C77.8711 16.9762 77.997 17.2993 78.2487 17.5275C78.5004 17.7557 78.7929 17.87 79.1258 17.87C79.4851 17.87 79.7898 17.7302 80.0397 17.4506V17.8276H81.0012V17.3791H80.5417ZM79.7901 17.1814C79.6239 17.3417 79.4333 17.4218 79.2184 17.4218C79.0035 17.4218 78.8058 17.3456 78.6466 17.1936C78.4872 17.0412 78.4074 16.8234 78.4074 16.5402C78.4074 16.2908 78.485 16.0805 78.6398 15.9098C78.7947 15.7391 78.986 15.6536 79.213 15.6536C79.4243 15.6536 79.6149 15.7262 79.7851 15.8714C79.955 16.0166 80.0401 16.2315 80.0401 16.5165C80.0401 16.8015 79.9567 17.0215 79.7905 17.1817L79.7901 17.1814Z" fill="#DFDFDF"/>
<path d="M77.2237 16.1246C77.2237 15.905 77.2069 15.7383 77.1736 15.624C77.1404 15.5101 77.0692 15.4134 76.9608 15.3347C76.8525 15.256 76.7156 15.2168 76.55 15.2168C76.284 15.2168 75.9901 15.3336 75.6679 15.5672V15.2567H74.7168V15.7052H75.1659V17.3779H74.7168V17.8264H76.1088V17.3779H75.6676V16.0028C75.9475 15.785 76.1982 15.6761 76.4202 15.6761C76.5046 15.6761 76.5761 15.7059 76.634 15.7652C76.6923 15.8245 76.7209 15.9518 76.7209 16.1462V17.8267H77.6534V17.3782H77.2229V16.125L77.2237 16.1246Z" fill="#DFDFDF"/>
<path d="M45.5798 15.5611C45.3156 15.3106 44.9995 15.1855 44.6315 15.1855C44.2636 15.1855 43.9386 15.3128 43.6779 15.5665C43.4173 15.8206 43.2871 16.1459 43.2871 16.5423C43.2871 16.9387 43.4162 17.2647 43.6743 17.5195C43.9321 17.7743 44.2514 17.9019 44.6319 17.9019C45.0123 17.9019 45.3181 17.7761 45.5816 17.5249C45.8447 17.2737 45.9763 16.9462 45.9763 16.5426C45.9763 16.139 45.8444 15.8123 45.5801 15.5618L45.5798 15.5611ZM45.2111 17.1615C45.0552 17.3254 44.8618 17.4073 44.6312 17.4073C44.4006 17.4073 44.2118 17.3265 44.0541 17.164C43.8964 17.0019 43.8177 16.7939 43.8177 16.5405C43.8177 16.2871 43.8942 16.0902 44.0476 15.9234C44.2007 15.757 44.3955 15.6736 44.6315 15.6736C44.8675 15.6736 45.0488 15.7552 45.2072 15.9184C45.3656 16.0812 45.445 16.2889 45.445 16.5405C45.445 16.7921 45.367 16.9976 45.2111 17.1615Z" fill="#DFDFDF"/>
<path d="M65.485 15.5586C65.2057 15.3099 64.8947 15.1855 64.5514 15.1855C64.2081 15.1855 63.8906 15.3131 63.6203 15.5679C63.35 15.8228 63.2148 16.1477 63.2148 16.5423C63.2148 16.9581 63.3536 17.2887 63.6307 17.5339C63.9082 17.779 64.2421 17.9015 64.6333 17.9015C64.885 17.9015 65.1264 17.8473 65.357 17.7384C65.5876 17.6295 65.775 17.4627 65.9198 17.2377L65.4761 17.0411C65.2719 17.3243 64.9944 17.4659 64.644 17.4659C64.4027 17.4659 64.2049 17.3926 64.0498 17.2456C63.8946 17.0986 63.8016 16.9067 63.7698 16.6695H65.9198C65.9091 16.1775 65.7643 15.8073 65.4854 15.5586H65.485ZM63.788 16.3029C63.8198 16.0941 63.9071 15.9238 64.0494 15.7919C64.1921 15.66 64.3637 15.5938 64.5643 15.5938C64.7845 15.5938 64.9701 15.6671 65.1217 15.8131C65.2733 15.9593 65.3663 16.1221 65.4017 16.3029H63.788Z" fill="#DFDFDF"/>
<path d="M42.6514 14.1348H41.6953V14.5837H42.1494V17.3791H41.6953V17.8279H43.0422V17.3791H42.6514V14.1348Z" fill="#DFDFDF"/>
<path d="M53.0322 15.6229C52.768 15.3523 52.4669 15.2168 52.1287 15.2168C51.7904 15.2168 51.4994 15.3419 51.2452 15.5924C50.9906 15.8429 50.8633 16.1717 50.8633 16.5789C50.8633 16.9505 50.9788 17.2639 51.2094 17.5187C51.44 17.7736 51.7386 17.9011 52.1047 17.9011C52.3053 17.9011 52.4902 17.8559 52.6593 17.7656C52.8284 17.6754 52.9525 17.5798 53.0319 17.4788V17.7125C53.0319 17.8825 53.0229 18.0032 53.0054 18.0747C52.9875 18.1463 52.9486 18.2221 52.8878 18.3015C52.827 18.3813 52.7351 18.4489 52.6118 18.5046C52.4884 18.5603 52.3547 18.588 52.2102 18.588C51.9496 18.588 51.7082 18.5013 51.4865 18.3277L51.159 18.694C51.455 18.9226 51.7912 19.0365 52.168 19.0365C52.418 19.0365 52.6443 18.9923 52.8467 18.9039C53.049 18.8155 53.201 18.7062 53.3022 18.5761C53.4034 18.446 53.4674 18.3188 53.4939 18.1937C53.5203 18.069 53.5335 17.8774 53.5335 17.619V15.7049H53.9934V15.2563H53.0319V15.6226L53.0322 15.6229ZM52.792 17.2039C52.6264 17.3692 52.429 17.4523 52.2002 17.4523C51.9714 17.4523 51.7736 17.37 51.6231 17.2053C51.4726 17.0407 51.3975 16.8283 51.3975 16.5681C51.3975 16.3079 51.4794 16.0855 51.6431 15.927C51.8069 15.7685 51.9978 15.6894 52.2163 15.6894C52.4348 15.6894 52.6264 15.7696 52.792 15.9298C52.9575 16.0901 53.0401 16.3018 53.0401 16.5656C53.0401 16.8294 52.9575 17.0386 52.792 17.2043V17.2039Z" fill="#DFDFDF"/>
<path d="M56.4479 15.5586C56.1686 15.3099 55.8576 15.1855 55.5143 15.1855C55.171 15.1855 54.8535 15.3131 54.5832 15.5679C54.3129 15.8228 54.1777 16.1477 54.1777 16.5423C54.1777 16.9581 54.3165 17.2887 54.5936 17.5339C54.8707 17.779 55.205 17.9015 55.5958 17.9015C55.8475 17.9015 56.0889 17.8473 56.3195 17.7384C56.5501 17.6295 56.7375 17.4627 56.882 17.2377L56.4382 17.0411C56.2341 17.3243 55.9566 17.4659 55.6062 17.4659C55.3648 17.4659 55.1667 17.3926 55.0119 17.2456C54.8567 17.0986 54.7634 16.9067 54.732 16.6695H56.882C56.8716 16.1775 56.7268 15.8073 56.4475 15.5586H56.4479ZM54.7509 16.3029C54.7827 16.0941 54.8696 15.9238 55.0123 15.7919C55.1549 15.66 55.3266 15.5938 55.5272 15.5938C55.7474 15.5938 55.933 15.6671 56.0846 15.8131C56.2359 15.9593 56.3292 16.1221 56.3646 16.3029H54.7509Z" fill="#DFDFDF"/>
<path d="M61.8103 15.7063H62.1653L61.6136 17.1641L61.063 15.7063H61.3955V15.2578H60.1094V15.7063H60.5603L61.3966 17.8703H61.8511L62.6666 15.7063H63.0596V15.2578H61.8103V15.7063Z" fill="#DFDFDF"/>
<path d="M50.0919 15.5611C49.8276 15.3106 49.5115 15.1855 49.1436 15.1855C48.7757 15.1855 48.4507 15.3128 48.19 15.5665C47.9293 15.8206 47.7988 16.1459 47.7988 16.5423C47.7988 16.9387 47.9279 17.2647 48.1861 17.5195C48.4439 17.7743 48.7632 17.9019 49.1436 17.9019C49.5241 17.9019 49.8298 17.7761 50.0933 17.5249C50.3565 17.2737 50.488 16.9462 50.488 16.5426C50.488 16.139 50.3561 15.8123 50.0919 15.5618V15.5611ZM49.7232 17.1615C49.5673 17.3254 49.3739 17.4073 49.1433 17.4073C48.9126 17.4073 48.7238 17.3265 48.5662 17.164C48.4085 17.0019 48.3298 16.7939 48.3298 16.5405C48.3298 16.2871 48.4063 16.0902 48.5597 15.9234C48.7131 15.757 48.9076 15.6736 49.1436 15.6736C49.3796 15.6736 49.5609 15.7552 49.7193 15.9184C49.8777 16.0812 49.9571 16.2889 49.9571 16.5405C49.9571 16.7921 49.8791 16.9976 49.7232 17.1615Z" fill="#DFDFDF"/>
<path d="M67.7137 15.2646C67.6018 15.2966 67.496 15.362 67.3955 15.4608C67.295 15.56 67.2167 15.6847 67.1606 15.8353V15.2567H66.2441V15.7052H66.7594V17.3779H66.2441V17.8264H67.8185V17.3779H67.2614V16.8125C67.2614 16.4621 67.2918 16.2192 67.3526 16.0837C67.4134 15.9482 67.5067 15.8547 67.6325 15.8033C67.7584 15.7519 67.9493 15.7264 68.2046 15.7264H68.3051V15.2168H68.1732C67.9794 15.2168 67.8267 15.2326 67.7148 15.2646H67.7137Z" fill="#DFDFDF"/>
<path d="M47.1631 14.1348H46.207V14.5837H46.6611V17.3791H46.207V17.8279H47.554V17.3791H47.1631V14.1348Z" fill="#DFDFDF"/>
<path d="M59.7256 16.1246C59.7256 15.905 59.7092 15.7383 59.6755 15.624C59.6423 15.5101 59.5711 15.4134 59.4628 15.3347C59.3548 15.256 59.2175 15.2168 59.052 15.2168C58.7863 15.2168 58.492 15.3336 58.1699 15.5672V15.2567H57.2188V15.7052H57.6678V17.3779H57.2188V17.8264H58.6107V17.3779H58.1695V16.0028C58.4495 15.785 58.7005 15.6761 58.9222 15.6761C59.0066 15.6761 59.0781 15.7059 59.136 15.7652C59.1939 15.8245 59.2232 15.9518 59.2232 16.1462V17.8267H60.1558V17.3782H59.7252V16.125L59.7256 16.1246Z" fill="#DFDFDF"/>
<path d="M58.349 12.665H57.7919V12.0996C57.7919 11.7492 57.8223 11.5063 57.8831 11.3708C57.9439 11.2353 58.0372 11.1418 58.1631 11.0904C58.2889 11.0391 58.4795 11.0135 58.7348 11.0135H58.8353V10.5039H58.7034C58.5096 10.5039 58.3569 10.5197 58.245 10.5517C58.133 10.5837 58.0272 10.6491 57.9267 10.7479C57.8263 10.8471 57.748 10.9718 57.6918 11.1224V10.5438H56.7754V10.9923H57.2903V12.665H56.7754V13.1135H58.3494V12.665H58.349Z" fill="#DFDFDF"/>
<path d="M41.0946 12.1748C41.0946 12.4404 41.1132 12.6327 41.1501 12.7523C41.1872 12.872 41.2616 12.9694 41.3732 13.0445C41.4851 13.1197 41.6263 13.1574 41.7972 13.1574C42.0665 13.1574 42.3482 13.0449 42.6425 12.8203V13.115H43.5854V12.6664H43.1442V10.5453H42.1906V10.9938H42.6422V12.385C42.3779 12.6082 42.1298 12.7196 41.8974 12.7196C41.8198 12.7196 41.7554 12.6984 41.7046 12.656C41.6535 12.6136 41.6227 12.5593 41.6124 12.4939C41.6017 12.4285 41.5963 12.3009 41.5963 12.1115V10.5449H40.7324V10.9935H41.0943V12.1748H41.0946Z" fill="#DFDFDF"/>
<path d="M49.1407 13.189C49.7131 13.189 50.1136 12.9331 50.3424 12.4217L49.9277 12.2251C49.7693 12.5615 49.514 12.7297 49.1618 12.7297C48.9083 12.7297 48.7145 12.6373 48.5807 12.4522C48.447 12.2671 48.3798 12.0533 48.3798 11.8111C48.3798 11.5509 48.4502 11.3406 48.5911 11.1807C48.732 11.0204 48.9151 10.9402 49.1407 10.9402C49.3098 10.9402 49.4582 10.9898 49.5858 11.089C49.7135 11.1882 49.7889 11.3305 49.8118 11.5163H50.2609V10.5445H49.8118V10.725C49.6162 10.5571 49.377 10.4727 49.0931 10.4727C48.762 10.4727 48.4699 10.5988 48.2164 10.8511C47.9629 11.1034 47.8359 11.4233 47.8359 11.8107C47.8359 12.1737 47.9521 12.4939 48.1846 12.7717C48.417 13.0499 48.7356 13.1886 49.1407 13.1886V13.189Z" fill="#DFDFDF"/>
<path d="M45.8339 12.9697C46.0066 13.0944 46.2293 13.1566 46.5021 13.1566C46.7928 13.1566 47.0292 13.0862 47.2115 12.9453C47.3939 12.8044 47.4847 12.6147 47.4847 12.3757C47.4847 12.2146 47.4429 12.0734 47.3592 11.9519C47.2755 11.8308 47.1704 11.7438 47.0435 11.6917C46.9166 11.6396 46.7292 11.594 46.481 11.5551C46.2222 11.5149 46.0538 11.4764 45.9751 11.4398C45.8968 11.4035 45.8575 11.3366 45.8575 11.2392C45.8575 11.1418 45.9 11.0671 45.9858 11.0096C46.0713 10.9521 46.18 10.9233 46.3119 10.9233C46.5708 10.9233 46.7678 11.0286 46.9037 11.2392V11.3959H47.3499V10.5438H46.9037V10.6538C46.7296 10.5539 46.5214 10.5039 46.2805 10.5039C46.0126 10.5039 45.797 10.5761 45.6333 10.7206C45.4695 10.8647 45.3876 11.0441 45.3876 11.2586C45.3876 11.4732 45.4627 11.6443 45.6132 11.778C45.7638 11.9117 46.0151 12.0083 46.3673 12.0684C46.6051 12.1072 46.7639 12.1496 46.844 12.1956C46.9241 12.2416 46.9641 12.3135 46.9641 12.4105C46.9641 12.5076 46.9158 12.5902 46.8189 12.6466C46.722 12.7034 46.5926 12.7315 46.4306 12.7315C46.2687 12.7315 46.1414 12.6926 46.0277 12.6147C45.914 12.5367 45.8492 12.4378 45.8335 12.3174V12.2326H45.3848V13.1139H45.8335V12.9694L45.8339 12.9697Z" fill="#DFDFDF"/>
<path d="M44.0321 12.2683C44.0321 12.5196 44.0443 12.6967 44.0689 12.7992C44.0936 12.902 44.1533 12.9875 44.2484 13.0554C44.3435 13.1237 44.4676 13.1575 44.621 13.1575C44.7497 13.1575 44.8781 13.1345 45.0065 13.0885V12.6292C44.9167 12.6644 44.8252 12.6824 44.7319 12.6824C44.6439 12.6824 44.5888 12.659 44.5667 12.6119C44.5445 12.5648 44.5338 12.4416 44.5338 12.2414V10.9936H45.0065V10.545H44.5338V9.6875L44.0321 10.1493V10.545H43.6992V10.9936H44.0321V12.268V12.2683Z" fill="#DFDFDF"/>
<path d="M40.4862 12.5248L40.0425 12.3282C39.8379 12.6114 39.5608 12.753 39.2104 12.753C38.9691 12.753 38.771 12.6797 38.6162 12.5327C38.4613 12.3857 38.3677 12.1938 38.3362 11.9566H40.4862C40.4755 11.4646 40.3307 11.0944 40.0518 10.8457C39.7725 10.597 39.4614 10.4727 39.1178 10.4727C38.7742 10.4727 38.457 10.6002 38.1867 10.8551C37.9164 11.1099 37.7812 11.4348 37.7812 11.8294C37.7812 12.2452 37.92 12.5759 38.1975 12.821C38.4746 13.0661 38.8089 13.1886 39.1997 13.1886C39.4514 13.1886 39.6928 13.1344 39.9234 13.0255C40.154 12.9166 40.3414 12.7498 40.4858 12.5248H40.4862ZM38.6162 11.0793C38.7588 10.9474 38.9304 10.8813 39.131 10.8813C39.3513 10.8813 39.5369 10.9546 39.6881 11.1005C39.8397 11.2468 39.9331 11.4096 39.9681 11.5904H38.3544C38.3859 11.3816 38.4731 11.2112 38.6158 11.0793H38.6162Z" fill="#DFDFDF"/>
<path d="M52.0073 12.6658H51.5636V11.2588C51.8629 11.0374 52.1096 10.927 52.3034 10.927C52.3788 10.927 52.4446 10.9482 52.5 10.9906C52.5555 11.0331 52.5894 11.0873 52.6016 11.1527C52.6137 11.2181 52.6202 11.3482 52.6202 11.543V13.1147H53.5577V12.6662H53.1218V11.368C53.1218 11.1448 53.1018 10.9756 53.0625 10.8595C53.0228 10.7437 52.9484 10.6503 52.8394 10.5795C52.7303 10.5087 52.5912 10.4735 52.4221 10.4735C52.1511 10.4735 51.865 10.5957 51.5636 10.8397V9.42188H50.5996V9.8704H51.0619V12.6658H50.5996V13.1143H52.0073V12.6658Z" fill="#DFDFDF"/>
<path d="M37.3187 11.2059C37.3187 10.8857 37.2593 10.6003 37.1402 10.3498C37.0215 10.0993 36.8624 9.90239 36.6636 9.75899C36.4645 9.61559 36.2592 9.52358 36.0468 9.48297C35.8348 9.44236 35.5323 9.42188 35.1397 9.42188H33.7188V9.8837H34.2179V12.6529H33.7188V13.1147H35.0553C35.4515 13.1147 35.7776 13.0888 36.034 13.0363C36.2903 12.9842 36.5113 12.8919 36.6969 12.7589C36.8824 12.6259 37.0326 12.4254 37.1474 12.1562C37.2618 11.887 37.319 11.5704 37.319 11.2056L37.3187 11.2059ZM36.6297 11.9384C36.5485 12.1368 36.443 12.2848 36.3125 12.383C36.182 12.4814 36.0222 12.5508 35.833 12.5914C35.6439 12.632 35.3871 12.6525 35.0632 12.6525H34.7725V9.88334H35.0868C35.5166 9.88334 35.8348 9.91749 36.0415 9.98577C36.2481 10.0541 36.4183 10.1993 36.5513 10.4224C36.6844 10.6453 36.7509 10.9173 36.7509 11.2376C36.7509 11.5067 36.7105 11.7404 36.6293 11.9384H36.6297Z" fill="#DFDFDF"/>
<path d="M55.8879 13.0255C56.1185 12.9166 56.3062 12.7498 56.4507 12.5248L56.0069 12.3282C55.8028 12.6114 55.5253 12.753 55.1749 12.753C54.9336 12.753 54.7355 12.6797 54.5806 12.5327C54.4258 12.3857 54.3325 12.1938 54.3007 11.9566H56.4507C56.44 11.4646 56.2951 11.0944 56.0162 10.8457C55.737 10.597 55.4259 10.4727 55.0827 10.4727C54.7394 10.4727 54.4219 10.6002 54.1516 10.8551C53.8813 11.1099 53.7461 11.4348 53.7461 11.8294C53.7461 12.2452 53.8848 12.5759 54.1619 12.821C54.4394 13.0661 54.7734 13.1886 55.1645 13.1886C55.4163 13.1886 55.6576 13.1344 55.8882 13.0255H55.8879ZM54.5806 11.0793C54.7233 10.9474 54.8949 10.8813 55.0959 10.8813C55.3158 10.8813 55.5017 10.9546 55.653 11.1005C55.8046 11.2468 55.8975 11.4096 55.9329 11.5904H54.3189C54.3507 11.3816 54.438 11.2112 54.5803 11.0793H54.5806Z" fill="#DFDFDF"/>
<path d="M13.9284 1C6.23586 1 0 7.26791 0 15C0 22.7321 6.23586 29 13.9284 29C21.621 29 27.8568 22.7321 27.8568 15C27.8568 7.26791 21.621 1 13.9284 1ZM8.25214 18.0337C7.68863 18.3668 7.0089 18.4944 6.15505 18.4944C5.76531 18.4944 5.35089 18.4355 5.05269 18.4355C4.65472 18.4355 4.23209 18.4452 3.75939 18.465C3.69324 18.406 3.69324 18.171 3.75939 18.1217L4.01648 18.0729C4.38941 18.0042 4.43912 17.9259 4.43912 17.0241V13.5541C4.43912 12.6229 4.42267 12.4368 4.04115 12.3879L3.88382 12.3685C3.80087 12.3192 3.80087 12.0353 3.90027 12.0253C4.5968 11.976 5.24327 11.9372 6.1218 11.9372C6.80152 11.9372 7.48124 12.0156 8.05334 12.2607C9.13925 12.7214 9.73602 13.878 9.73602 15.1031C9.73602 16.4167 9.2054 17.4755 8.25214 18.034V18.0337ZM12.8958 15.7008C12.8178 15.6419 12.8082 15.5244 12.8765 15.446C13.7539 15.3285 14.6221 14.6323 14.6221 13.4366C14.6221 12.7013 14.193 12.3192 13.4908 12.3192C13.2373 12.3192 13.2079 12.3685 13.12 12.6524L11.7448 17.0241C11.4816 17.877 11.4623 18.0826 11.9593 18.1415L12.2908 18.1807C12.3394 18.259 12.3004 18.4161 12.2321 18.465C11.7155 18.4452 11.2667 18.4355 10.7987 18.4355C10.3596 18.4355 9.98917 18.4452 9.53078 18.465C9.43316 18.4157 9.43316 18.2198 9.54043 18.1807L9.83292 18.1415C10.2716 18.0826 10.3592 17.9747 10.6521 17.0241L11.8614 13.1523C12.0466 12.5547 12.0369 12.4073 11.6955 12.3584L11.286 12.2995C11.2081 12.2405 11.2471 12.0838 11.3447 12.0447C11.832 11.9857 12.3491 11.9368 13.0803 11.9368C13.9774 11.9368 14.6407 12.0741 15.0794 12.3778C15.5281 12.6819 15.7523 13.1326 15.7523 13.7011C15.7523 14.6715 14.9721 15.3281 14.1043 15.5438C13.597 15.6714 13.2169 15.7005 12.8951 15.7005L12.8958 15.7008ZM18.3082 17.5632C18.0157 18.0143 17.4207 18.5728 16.8844 18.5728C16.5722 18.5728 16.4163 18.3963 16.4163 18.2198C16.4163 18.0337 16.5822 17.8475 16.7285 17.8475C16.7871 17.8475 16.8458 17.8867 16.904 17.9453C17.0017 18.0434 17.0893 18.1023 17.1479 18.1023C17.2359 18.1023 17.3041 17.965 17.4111 17.7199C17.7035 17.0335 18.1523 15.7396 18.1523 15.23C18.1523 15.0535 18.0936 14.9655 17.9767 14.9655C17.8791 14.9655 17.7232 15.0341 17.5376 15.1714C17.2451 15.3871 16.9527 15.7005 16.5332 16.2593C16.0359 16.9062 15.5092 18.0729 15.3047 18.4157C15.2364 18.5336 15.1291 18.5724 14.9732 18.5724C14.7976 18.5724 14.4662 18.5135 14.5638 18.2393L16.436 12.7599C16.6116 12.2599 16.6505 12.1421 16.4653 12.0346L16.2315 11.8973C16.2118 11.8384 16.2118 11.76 16.2704 11.7208C16.5046 11.6227 17.3238 11.4466 17.7529 11.4269C17.7919 11.4466 17.8115 11.4858 17.8308 11.5052C17.6553 11.9954 17.4214 12.6028 17.2362 13.1423L16.1928 16.1026L16.2122 16.1224C16.7095 15.5046 17.1093 15.152 17.4118 14.9263C17.7826 14.642 18.153 14.4361 18.4845 14.4361C18.9332 14.4361 19.167 14.7693 19.167 15.1908C19.167 15.9359 18.709 16.9551 18.3089 17.5629L18.3082 17.5632ZM24.78 11.9368C24.8465 11.976 24.8548 12.2111 24.7965 12.27L24.5809 12.3192C24.3488 12.3685 24.2326 12.4565 24.125 12.6625C23.9426 12.9859 23.7188 13.515 23.437 14.3092L22.832 16.0049C22.4094 17.1909 22.1856 17.9654 21.995 18.5142C21.9288 18.5634 21.8291 18.5925 21.7046 18.5925C21.6052 18.5925 21.5309 18.5631 21.4808 18.5142C21.3896 18.2497 21.2488 17.73 21.1329 17.3968L19.7899 13.4075C19.4749 12.4662 19.4334 12.4468 19.1681 12.3685L18.8367 12.2704C18.7705 12.1625 18.7952 11.9861 18.8695 11.9372C19.2922 11.9469 19.5661 11.9667 19.9969 11.9667C20.3781 11.9667 20.7346 11.957 21.2402 11.9372C21.3067 11.9961 21.2985 12.1823 21.2484 12.2704L20.9995 12.3293C20.8504 12.3685 20.7925 12.4274 20.7925 12.5155C20.7925 12.5938 20.9252 13.0057 21.124 13.5937L21.8534 15.7989C21.9692 16.1616 22.0522 16.3869 22.1101 16.5537C22.1766 16.3869 22.276 16.1224 22.3754 15.8284L22.6822 14.9073C22.8892 14.2898 23.2375 13.1919 23.3373 12.8583C23.3952 12.6722 23.4202 12.5644 23.4202 12.5054C23.4202 12.4368 23.3952 12.3976 23.1964 12.3387L22.9561 12.27C22.8896 12.1917 22.8896 11.9857 22.989 11.9368C23.3787 11.9563 23.6938 11.9663 24.0084 11.9663C24.2902 11.9663 24.539 11.9566 24.7793 11.9368H24.78Z" fill="#DFDFDF"/>
<path d="M6.11414 12.3867C5.89031 12.3867 5.73298 12.4356 5.68328 12.5143C5.63358 12.5927 5.625 12.7788 5.625 13.0829V16.6607C5.625 17.1998 5.64145 17.5527 5.79091 17.7583C5.94001 17.9542 6.18065 18.0426 6.47885 18.0426C7.91303 18.0426 8.40217 16.5331 8.40217 15.2001C8.40217 13.4358 7.61482 12.3867 6.1145 12.3867H6.11414Z" fill="#DFDFDF"/>
</g>
</svg>