<svg width="28" height="28" viewBox="0 0 28 28" fill="none" xmlns="http://www.w3.org/2000/svg">
<g clip-path="url(#clip0_2050_12)">
<path d="M14.0002 12.6562C13.933 12.6562 13.8524 12.6563 13.7852 12.6966C13.7046 12.71 13.6374 12.7235 13.5567 12.7369C13.167 12.8579 12.8579 13.167 12.7369 13.5567V13.5702C12.7235 13.6374 12.71 13.718 12.6966 13.7852C12.6563 13.8524 12.6562 13.933 12.6562 14.0002C12.6562 14.7394 13.2611 15.3442 14.0002 15.3442C14.0674 15.3442 14.1481 15.3442 14.2153 15.3039C14.2825 15.2905 14.3631 15.277 14.4303 15.2636H14.4438C14.8335 15.1426 15.1426 14.8335 15.2636 14.4438C15.277 14.3631 15.2905 14.2959 15.3039 14.2153C15.3442 14.1481 15.3442 14.0674 15.3442 14.0002C15.3442 13.2611 14.7394 12.6562 14.0002 12.6562Z" fill="white"/>
<path d="M14.0005 0.560547C6.58167 0.560547 0.560547 6.58167 0.560547 14.0005C0.560547 21.4194 6.58167 27.4405 14.0005 27.4405C21.4194 27.4405 27.4405 21.4194 27.4405 14.0005C27.4405 6.58167 21.4194 0.560547 14.0005 0.560547ZM21.2581 7.97943L17.9519 13.2748C17.9653 13.3151 17.9788 13.3554 17.9788 13.3957C18.0191 13.5839 18.0325 13.7855 18.0325 14.0005C18.0325 14.4172 17.9788 14.7935 17.8578 15.1698C17.4815 16.4601 16.4601 17.4546 15.1833 17.8578C14.8069 17.9788 14.4172 18.0325 14.0005 18.0325C13.7855 18.0325 13.5839 18.0191 13.3957 17.9788C13.3554 17.9788 13.3151 17.9653 13.2748 17.9519H13.2613L7.81815 21.3522L7.50903 21.3925C7.17303 21.3925 6.87735 21.2178 6.71607 20.9221C6.56823 20.6399 6.56823 20.2905 6.74295 20.0217L10.0492 14.7263C10.0357 14.686 10.0223 14.6457 10.0223 14.6053C9.98199 14.4172 9.96855 14.2156 9.96855 14.0005C9.96855 13.5839 10.0223 13.2076 10.1433 12.8313V12.8178C10.5465 11.5276 11.541 10.5465 12.8178 10.1433C13.1941 10.0223 13.5839 9.96855 14.0005 9.96855C14.2156 9.96855 14.4172 9.98199 14.6053 10.0223C14.6457 10.0223 14.686 10.0357 14.7263 10.0492L20.1829 6.64887L20.4921 6.60855C20.8281 6.60855 21.1237 6.78327 21.285 7.07895C21.4329 7.36119 21.4329 7.71063 21.2581 7.97943Z" fill="white"/>
</g>
<defs>
<clipPath id="clip0_2050_12">
<rect width="28" height="28" fill="white"/>
</clipPath>
</defs>
</svg>
