<svg width="102" height="102" viewBox="0 0 102 102" fill="none" xmlns="http://www.w3.org/2000/svg">
<g clip-path="url(#clip0_2050_35)">
<path d="M36.6687 0C31.2903 0 26.9895 4.58956e-06 23.4921 0.234396C19.9943 0.45848 17.3103 0.917407 15.1549 1.83436C12.0539 2.99601 9.27802 4.83035 7.00053 7.16396C4.72304 9.49756 2.93347 12.3407 1.80501 15.5201C0.910645 17.7215 0.452927 20.4727 0.229335 24.0496C0.00530495 27.6367 0.00532121 32.0391 0.00532121 37.552V98.3186C-0.11632 100.581 1.86627 102.364 4.03174 101.936C5.68877 101.62 6.8378 100.04 6.6549 98.3186V35.8503C6.6549 31.6214 6.65491 28.2382 6.82774 25.4967C7.01064 22.7557 7.3563 20.6462 8.04764 18.9544C8.91181 16.5087 10.2743 14.3279 12.0233 12.5344C13.7717 10.7408 15.897 9.33443 18.276 8.44795C19.9334 7.74478 21.9974 7.38805 24.6814 7.21505C27.3654 7.04161 30.6597 7.05191 34.7876 7.05191H98.5469C100.204 7.0927 101.648 5.90013 101.943 4.22936C102.329 2.04813 100.712 0.0304754 98.5469 0H36.6687Z" fill="#956D98"/>
</g>
<defs>
<clipPath id="clip0_2050_35">
<rect width="102" height="102" fill="white"/>
</clipPath>
</defs>
</svg>
