<?xml version="1.0" encoding="utf-8"?><svg viewBox="0 0 102 102" xmlns="http://www.w3.org/2000/svg" xmlns:xlink="http://www.w3.org/1999/xlink"><style>:root>svg{display:none}:root>svg:target{display:block}</style><svg fill="none" viewBox="0 0 28 28" id="about-card-1" xmlns="http://www.w3.org/2000/svg"><path d="M16.505 15.295h-6.008c-4.148 0-7.51 3.487-7.51 7.788 0 1.72 1.344 3.116 3.003 3.116h15.021c1.659 0 3.004-1.395 3.004-3.116 0-4.301-3.363-7.788-7.51-7.788zM13.5 13.738c2.903 0 5.256-2.441 5.256-5.452 0-3.012-2.353-5.452-5.257-5.452-2.904 0-5.257 2.441-5.257 5.452 0 3.01 2.354 5.452 5.257 5.452zM24.45 2.183a.974.974 0 00-1.401-.152 1.062 1.062 0 00-.147 1.455c1.01 1.29 1.565 3.008 1.565 4.836 0 1.829-.556 3.544-1.565 4.837a1.06 1.06 0 00.147 1.454.974.974 0 001.402-.154c1.296-1.659 2.01-3.838 2.01-6.137 0-2.3-.714-4.48-2.01-6.139z" fill="#fff"/><path d="M20.417 12.25a.971.971 0 001.405-.117c.827-1.007 1.283-2.36 1.283-3.81 0-1.452-.456-2.806-1.283-3.813a.973.973 0 00-1.405-.117 1.061 1.061 0 00-.112 1.457c.52.633.806 1.51.806 2.472 0 .96-.286 1.837-.806 2.47a1.06 1.06 0 00.112 1.457v.001zM3.951 14.613a1.06 1.06 0 00.147-1.454c-1.01-1.293-1.565-3.01-1.565-4.837 0-1.826.556-3.546 1.565-4.835a1.062 1.062 0 00-.147-1.456.973.973 0 00-1.402.153C1.253 3.842.54 6.022.54 8.322s.714 4.48 2.01 6.137a.973.973 0 001.402.153z" fill="#fff"/><path d="M5.177 12.133a.97.97 0 001.405.117c.42-.37.47-1.024.112-1.458-.52-.633-.806-1.51-.806-2.47 0-.96.286-1.84.806-2.472a1.06 1.06 0 00-.112-1.457.973.973 0 00-1.405.117C4.35 5.517 3.895 6.87 3.895 8.322s.455 2.804 1.282 3.81z" fill="#fff"/></svg><svg fill="none" viewBox="0 0 28 28" id="about-card-2" xmlns="http://www.w3.org/2000/svg"><path d="M7.631 13.566a2.354 2.354 0 013.326 0l2.132 2.13c.17.172.304.172.474 0l4.82-4.819a2.354 2.354 0 013.326 0l5.729 5.73V4.803a2.83 2.83 0 00-2.83-2.83H3.388a2.83 2.83 0 00-2.83 2.83V20.64l7.073-7.073z" fill="#fff"/><path d="M27.398 19.417l-7.113-7.114a.336.336 0 00-.475 0l-4.82 4.82a2.354 2.354 0 01-3.326 0l-2.13-2.132a.336.336 0 00-.476 0L.6 23.45l-.014.01a2.82 2.82 0 002.803 2.567h21.22a2.83 2.83 0 002.83-2.83v-3.752c-.012-.011-.028-.015-.04-.027z" fill="#fff"/></svg><svg fill="none" viewBox="0 0 28 28" id="about-card-3" xmlns="http://www.w3.org/2000/svg"><g clip-path="url(#cclip0_2050_12)" fill="#fff"><path d="M14 12.656a.41.41 0 00-.215.04c-.08.014-.148.027-.228.04a1.25 1.25 0 00-.82.82v.014c-.014.067-.027.148-.04.215a.41.41 0 00-.04.215c0 .74.604 1.344 1.343 1.344.067 0 .148 0 .215-.04.068-.014.148-.027.215-.04h.014c.39-.121.699-.43.82-.82.013-.08.027-.148.04-.229.04-.067.04-.148.04-.215 0-.739-.605-1.344-1.344-1.344z"/><path d="M14 .56C6.583.56.56 6.583.56 14c0 7.42 6.022 13.44 13.44 13.44 7.42 0 13.44-6.02 13.44-13.44C27.44 6.583 21.42.56 14 .56zm7.258 7.42l-3.306 5.295c.013.04.027.08.027.12.04.189.053.39.053.606 0 .416-.053.793-.174 1.169-.377 1.29-1.398 2.285-2.675 2.688a3.817 3.817 0 01-1.182.174c-.215 0-.417-.013-.605-.053-.04 0-.08-.014-.121-.027h-.014l-5.443 3.4-.309.04a.898.898 0 01-.766-1.37l3.306-5.296a.39.39 0 01-.027-.12A2.894 2.894 0 019.97 14c0-.417.053-.793.174-1.17v-.013a4.064 4.064 0 012.675-2.675A3.816 3.816 0 0114 9.97c.215 0 .416.013.604.053.04 0 .081.014.121.027l5.457-3.4.31-.04a.898.898 0 01.766 1.37z"/></g><defs><clipPath id="cclip0_2050_12"><path fill="#fff" d="M0 0h28v28H0z"/></clipPath></defs></svg><svg fill="none" viewBox="0 0 102 102" id="border-style-1" xmlns="http://www.w3.org/2000/svg"><g clip-path="url(#dclip0_2050_35)"><path d="M36.669 0c-5.379 0-9.68 0-13.177.234-3.498.224-6.182.683-8.337 1.6A22.365 22.365 0 007 7.164a22.954 22.954 0 00-5.196 8.356C.911 17.721.453 20.473.229 24.05.005 27.637.005 32.04.005 37.552v60.767c-.121 2.262 1.861 4.045 4.027 3.617 1.657-.316 2.806-1.896 2.623-3.617V35.85c0-4.229 0-7.612.173-10.353.183-2.741.528-4.85 1.22-6.543a17.552 17.552 0 013.975-6.42 17.048 17.048 0 016.253-4.086c1.657-.703 3.721-1.06 6.405-1.233 2.684-.173 5.979-.163 10.107-.163h63.759c1.657.04 3.101-1.152 3.396-2.823.386-2.18-1.231-4.199-3.396-4.229H36.669z" fill="#956D98"/></g><defs><clipPath id="dclip0_2050_35"><path fill="#fff" d="M0 0h102v102H0z"/></clipPath></defs></svg><svg viewBox="0 0 24 24" id="triangle-type-1" xmlns="http://www.w3.org/2000/svg"><path d="M21.71 18.75H3L12.354 6l9.356 12.75zm-16.735-1h14.76l-7.38-10.06-7.38 10.06z"/></svg></svg>