<svg width="28" height="28" viewBox="0 0 28 28" fill="none" xmlns="http://www.w3.org/2000/svg">
<path d="M7.63139 13.5655C8.54755 12.6482 10.0411 12.6482 10.9572 13.5655L13.0886 15.6968C13.2594 15.8676 13.3932 15.8676 13.5635 15.6968L18.3828 10.8775C19.299 9.96021 20.7925 9.96021 21.7087 10.8775L27.4375 16.6063V4.80429C27.4375 3.24133 26.1708 1.97461 24.6078 1.97461H3.38827C1.82531 1.97461 0.558594 3.24133 0.558594 4.80429V20.6388L7.63139 13.566V13.5655Z" fill="white"/>
<path d="M27.3982 19.417L20.2845 12.3034C20.1535 12.1723 19.9407 12.1723 19.8096 12.3034L14.9903 17.1227C14.0741 18.04 12.5806 18.04 11.6644 17.1227L9.53306 14.9914C9.40202 14.8603 9.18922 14.8603 9.05818 14.9914L0.599937 23.449C0.596017 23.453 0.589858 23.4546 0.585938 23.4586C0.720337 24.8961 1.91594 26.0256 3.38874 26.0256H24.6099C26.1729 26.0256 27.4396 24.7589 27.4396 23.1959V19.4439C27.4273 19.4327 27.4111 19.4288 27.3987 19.417H27.3982Z" fill="white"/>
</svg>
