<svg width="28" height="28" viewBox="0 0 28 28" fill="none" xmlns="http://www.w3.org/2000/svg">
<path d="M16.5047 15.2949H10.4966C6.34891 15.2949 2.98633 18.782 2.98633 23.0834C2.98633 24.8037 4.33147 26.1987 5.99035 26.1987H21.011C22.6699 26.1987 24.015 24.8037 24.015 23.0834C24.015 18.782 20.6524 15.2949 16.5047 15.2949Z" fill="white"/>
<path d="M13.4991 13.7377C16.4027 13.7377 18.7565 11.2967 18.7565 8.28558C18.7565 5.27446 16.4027 2.83398 13.4991 2.83398C10.5955 2.83398 8.24219 5.27502 8.24219 8.28558C8.24219 11.2961 10.596 13.7377 13.4991 13.7377Z" fill="white"/>
<path d="M24.4508 2.18334C24.1031 1.74038 23.4756 1.67206 23.049 2.03102C22.6213 2.39166 22.556 3.04182 22.9021 3.48646C23.9114 4.77614 24.467 6.49366 24.467 8.32206C24.467 10.1505 23.9114 11.8663 22.9021 13.1588C22.5554 13.6017 22.6213 14.253 23.049 14.6125C23.2342 14.7671 23.4551 14.8427 23.6759 14.8427C23.9659 14.8427 24.2543 14.7122 24.4508 14.4591C25.7468 12.8004 26.4607 10.6214 26.4607 8.32206C26.4607 6.0227 25.7468 3.84206 24.4508 2.18334Z" fill="white"/>
<path d="M20.4169 12.2501C20.6043 12.4158 20.8343 12.4965 21.0628 12.4965C21.3452 12.4965 21.6249 12.3727 21.822 12.133C22.6487 11.1262 23.1045 9.77319 23.1045 8.32223C23.1045 6.87127 22.6487 5.51663 21.822 4.50975C21.4656 4.07631 20.8365 4.02255 20.4169 4.39271C19.9979 4.76287 19.9477 5.41583 20.3046 5.85039C20.8246 6.48319 21.1108 7.36071 21.1108 8.32167C21.1108 9.28263 20.8246 10.159 20.3046 10.7918C19.9477 11.2264 19.9973 11.8794 20.4169 12.2495V12.2501Z" fill="white"/>
<path d="M3.95132 14.6128C4.379 14.2532 4.44434 13.602 4.0982 13.159C3.08894 11.8665 2.53328 10.149 2.53328 8.32229C2.53328 6.49557 3.08894 4.77637 4.0982 3.48669C4.44488 3.04261 4.379 2.39245 3.95132 2.03125C3.52418 1.67173 2.89616 1.74061 2.54948 2.18357C1.25294 3.84229 0.539062 6.02181 0.539062 8.32229C0.539062 10.6228 1.25294 12.8012 2.54894 14.4593C2.7455 14.7124 3.03386 14.8429 3.32384 14.8429C3.5447 14.8429 3.7661 14.7673 3.95078 14.6128H3.95132Z" fill="white"/>
<path d="M5.17703 12.1325C5.37413 12.3722 5.65385 12.4959 5.93627 12.4959C6.16469 12.4959 6.39473 12.4153 6.58211 12.2495C7.00115 11.8794 7.05137 11.2264 6.69443 10.7918C6.17441 10.159 5.88821 9.28151 5.88821 8.32167C5.88821 7.36183 6.17441 6.48263 6.69443 5.85039C7.05137 5.41583 7.00169 4.76287 6.58211 4.39271C6.16361 4.02255 5.53451 4.07631 5.17703 4.50975C4.35029 5.51663 3.89453 6.87071 3.89453 8.32223C3.89453 9.77375 4.35029 11.1256 5.17703 12.1325Z" fill="white"/>
</svg>
