<svg width="126" height="30" viewBox="0 0 126 30" fill="none" xmlns="http://www.w3.org/2000/svg">
<g clip-path="url(#clip0_2051_190)">
<g style="mix-blend-mode:screen">
<path d="M28.2159 28.7383H0.236328V0.758723H28.2159V28.7383Z" fill="white"/>
<mask id="mask0_2051_190" style="mask-type:luminance" maskUnits="userSpaceOnUse" x="-2" y="-16" width="131" height="64">
<path d="M-2 -15.9992H128.062V47.5078H-2V-15.9992Z" fill="white"/>
</mask>
<g mask="url(#mask0_2051_190)">
<path d="M38.3988 15.4765C37.895 13.8547 37.6114 12.9375 37.5477 12.7248C37.4843 12.5123 37.4391 12.3442 37.4117 12.2208C37.2985 12.6597 36.9743 13.745 36.4396 15.4765H38.3988ZM39.3246 18.6035L38.7798 16.8137H36.0381L35.493 18.6035H33.7754L36.4291 11.0534H38.3788L41.0431 18.6035H39.3246Z" fill="#BABABA"/>
<path d="M42.1016 18.6035V11.0841H43.6961V17.2868H46.7461V18.6035H42.1016Z" fill="#BABABA"/>
<path d="M49.8158 18.6035H48.2217V12.411H46.1797V11.0841H51.8577V12.411H49.8158V18.6035Z" fill="#BABABA"/>
<path d="M57.4542 16.5142C57.4542 17.193 57.21 17.7279 56.7212 18.1187C56.2329 18.5097 55.5529 18.7051 54.682 18.7051C53.8799 18.7051 53.1701 18.5543 52.5527 18.2526V16.7713C53.0604 16.9975 53.4897 17.1571 53.8413 17.2496C54.1925 17.3421 54.5139 17.3885 54.8056 17.3885C55.1553 17.3885 55.4234 17.3217 55.6105 17.188C55.7974 17.0541 55.891 16.8553 55.891 16.5912C55.891 16.4439 55.8496 16.3127 55.7673 16.1977C55.685 16.083 55.564 15.9725 55.4049 15.8661C55.2453 15.7598 54.9204 15.5902 54.4301 15.357C53.9707 15.1408 53.6261 14.9336 53.3962 14.7346C53.1666 14.5358 52.9832 14.3043 52.846 14.0403C52.7088 13.7762 52.6405 13.4677 52.6405 13.1146C52.6405 12.4494 52.8657 11.9265 53.3166 11.5457C53.7675 11.1651 54.3907 10.9749 55.1862 10.9749C55.5772 10.9749 55.9501 11.0212 56.3047 11.1138C56.6598 11.2063 57.0307 11.3367 57.4182 11.5047L56.904 12.7442C56.5029 12.5796 56.171 12.4647 55.9087 12.3996C55.6464 12.3345 55.3883 12.3018 55.1348 12.3018C54.833 12.3018 54.6017 12.3721 54.4405 12.5128C54.279 12.6534 54.1986 12.8367 54.1986 13.0629C54.1986 13.2036 54.2311 13.3263 54.2964 13.4308C54.3613 13.5355 54.4652 13.6365 54.6074 13.7343C54.75 13.832 55.0865 14.0076 55.6182 14.2615C56.3209 14.5974 56.8027 14.9343 57.0636 15.272C57.3239 15.6099 57.4542 16.0239 57.4542 16.5142Z" fill="#BABABA"/>
<path d="M61.7181 18.6035H60.124V12.411H58.082V11.0841H63.7601V12.411H61.7181V18.6035Z" fill="#BABABA"/>
<path d="M64.918 11.0822H66.5125V18.6016H64.918V11.0822Z" fill="#BABABA"/>
<path d="M70.2234 14.6226H70.7481C71.2384 14.6226 71.6051 14.5258 71.8489 14.332C72.0923 14.1385 72.214 13.8563 72.214 13.4861C72.214 13.1123 72.112 12.8363 71.908 12.658C71.704 12.4799 71.3841 12.3906 70.9486 12.3906H70.2234V14.6226ZM73.8236 13.4296C73.8236 14.2388 73.5709 14.8575 73.0651 15.2862C72.5594 15.7149 71.84 15.9291 70.9073 15.9291H70.2234V18.6035H68.6289V11.0841H71.031C71.9432 11.0841 72.6363 11.2806 73.1115 11.6731C73.5863 12.0657 73.8236 12.6512 73.8236 13.4296Z" fill="#BABABA"/>
<path d="M79.3503 18.6035H75.0195V11.0841H79.3503V12.3906H76.6141V14.0415H79.1598V15.3478H76.6141V17.2868H79.3503V18.6035Z" fill="#BABABA"/>
<path d="M87.5889 18.6035H85.5625L82.2915 12.915H82.2451C82.3101 13.9198 82.3429 14.6365 82.3429 15.065V18.6035H80.918V11.0841H82.929L86.1949 16.7159H86.2309C86.1795 15.7388 86.154 15.0478 86.154 14.6433V11.0841H87.5889V18.6035Z" fill="#BABABA"/>
<path d="M94.1744 14.8129C94.1744 13.1981 93.4612 12.3906 92.0348 12.3906H91.1863V17.2868H91.8702C93.4064 17.2868 94.1744 16.4623 94.1744 14.8129ZM95.8307 14.7717C95.8307 16.0096 95.4784 16.9576 94.7737 17.616C94.0689 18.2744 93.0517 18.6035 91.721 18.6035H89.5918V11.0841H91.9524C93.1799 11.0841 94.1335 11.4082 94.8123 12.0562C95.4911 12.7043 95.8307 13.6096 95.8307 14.7717Z" fill="#BABABA"/>
<path d="M97.2773 11.0822H98.8718V18.6016H97.2773V11.0822Z" fill="#BABABA"/>
<path d="M104.444 15.4765C103.94 13.8547 103.656 12.9375 103.593 12.7248C103.529 12.5123 103.484 12.3442 103.456 12.2208C103.344 12.6597 103.019 13.745 102.484 15.4765H104.444ZM105.37 18.6035L104.824 16.8137H102.083L101.538 18.6035H99.8203L102.474 11.0534H104.423L107.088 18.6035H105.37Z" fill="#BABABA"/>
<path d="M110.318 18.6035H108.724V12.411H106.682V11.0841H112.36V12.411H110.318V18.6035Z" fill="#BABABA"/>
<path d="M117.846 18.6035H113.516V11.0841H117.846V12.3906H115.11V14.0415H117.656V15.3478H115.11V17.2868H117.846V18.6035Z" fill="#BABABA"/>
<path d="M126.087 18.6035H124.061L120.79 12.915H120.743C120.808 13.9198 120.841 14.6365 120.841 15.065V18.6035H119.416V11.0841H121.427L124.693 16.7159H124.729C124.678 15.7388 124.652 15.0478 124.652 14.6433V11.0841H126.087V18.6035Z" fill="#BABABA"/>
<path d="M35.7229 28.1541C35.928 28.1541 36.0781 28.0947 36.1739 27.9755C36.2693 27.8562 36.3212 27.6538 36.3301 27.3681V27.2814C36.3301 26.9659 36.2816 26.7397 36.1843 26.6029C36.0869 26.4663 35.9288 26.3979 35.7099 26.3979C35.531 26.3979 35.3921 26.4739 35.2928 26.6254C35.1939 26.777 35.1443 26.9974 35.1443 27.2866C35.1443 27.5757 35.1943 27.7927 35.2943 27.9374C35.3939 28.0818 35.5371 28.1541 35.7229 28.1541ZM35.4413 28.793C35.0961 28.793 34.8249 28.6589 34.6275 28.3907C34.4305 28.1226 34.332 27.7511 34.332 27.276C34.332 26.7941 34.432 26.4186 34.6329 26.1495C34.8337 25.8804 35.11 25.7459 35.4624 25.7459C35.8322 25.7459 36.1146 25.8896 36.3093 26.177H36.3355C36.2951 25.958 36.2751 25.7626 36.2751 25.5908V24.6496H37.0796V28.7405H36.4644L36.3093 28.3592H36.2751C36.0927 28.6486 35.8149 28.793 35.4413 28.793Z" fill="#BABABA"/>
<path d="M39.1342 26.3164C38.9641 26.3164 38.831 26.3703 38.7348 26.478C38.6383 26.5859 38.5832 26.7389 38.569 26.9369H39.6945C39.691 26.7389 39.6391 26.5859 39.5394 26.478C39.4394 26.3703 39.3043 26.3164 39.1342 26.3164ZM39.2473 28.793C38.7741 28.793 38.4043 28.6625 38.1377 28.4013C37.8714 28.1401 37.7383 27.7703 37.7383 27.2918C37.7383 26.7992 37.8614 26.4186 38.1076 26.1494C38.3539 25.8803 38.6944 25.7459 39.1292 25.7459C39.5444 25.7459 39.868 25.8642 40.0992 26.1008C40.3309 26.3374 40.4462 26.6645 40.4462 27.0815V27.4706H38.5506C38.5594 27.6984 38.6267 27.8763 38.7529 28.0043C38.8791 28.1322 39.0565 28.1963 39.2842 28.1963C39.4613 28.1963 39.6286 28.1778 39.7864 28.1411C39.9442 28.1043 40.1088 28.0455 40.2808 27.9648V28.5854C40.1404 28.6555 39.9907 28.7076 39.831 28.7418C39.6717 28.7761 39.477 28.793 39.2473 28.793Z" fill="#BABABA"/>
<path d="M42.7387 25.7437C42.8472 25.7437 42.9376 25.7515 43.0092 25.7674L42.9488 26.5193C42.8841 26.5018 42.8053 26.493 42.7121 26.493C42.4562 26.493 42.2569 26.5587 42.1142 26.6902C41.971 26.8217 41.8998 27.0056 41.8998 27.2422V28.7383H41.0977V25.7989H41.7052L41.8233 26.2931H41.8629C41.9541 26.1284 42.0773 25.9957 42.2323 25.8949C42.3874 25.7941 42.5563 25.7437 42.7387 25.7437Z" fill="#BABABA"/>
<path d="M48.0982 28.7383H47.1724L46.1655 27.1187L45.8212 27.3659V28.7383H45.0059V24.8944H45.8212V26.6534L46.142 26.2011L47.1832 24.8944H48.0875L46.7465 26.5955L48.0982 28.7383Z" fill="#BABABA"/>
<path d="M49.1594 27.2656C49.1594 27.5565 49.2071 27.7766 49.3025 27.9254C49.3984 28.0745 49.5538 28.149 49.7693 28.149C49.9832 28.149 50.1371 28.0749 50.231 27.9268C50.3245 27.7786 50.3715 27.5582 50.3715 27.2656C50.3715 26.9745 50.3241 26.7564 50.2295 26.611C50.1348 26.4653 49.9797 26.3926 49.7643 26.3926C49.5504 26.3926 49.3961 26.465 49.3014 26.6096C49.2068 26.7541 49.1594 26.9728 49.1594 27.2656ZM51.1917 27.2656C51.1917 27.744 51.0656 28.1184 50.8131 28.3883C50.5608 28.6581 50.2095 28.793 49.7589 28.793C49.4765 28.793 49.2279 28.7313 49.0121 28.6077C48.7966 28.4841 48.6307 28.3067 48.5153 28.0753C48.3995 27.8439 48.3418 27.5739 48.3418 27.2656C48.3418 26.7853 48.4668 26.4118 48.7177 26.1454C48.9682 25.8792 49.3207 25.7459 49.7746 25.7459C50.0567 25.7459 50.3056 25.8073 50.5215 25.93C50.7369 26.0527 50.9028 26.2287 51.0182 26.4584C51.134 26.6881 51.1917 26.9571 51.1917 27.2656Z" fill="#BABABA"/>
<path d="M54.5673 28.7383H53.765V27.0214C53.765 26.8094 53.7273 26.6503 53.6523 26.5444C53.5769 26.4382 53.4568 26.3852 53.2918 26.3852C53.0675 26.3852 52.9055 26.4601 52.8054 26.6099C52.7054 26.7598 52.6558 27.0083 52.6558 27.3553V28.7383H51.8535V25.7989H52.4664L52.5742 26.1748H52.6188C52.708 26.0328 52.8312 25.9255 52.9882 25.8528C53.1452 25.7801 53.3233 25.7437 53.5234 25.7437C53.8651 25.7437 54.1244 25.8363 54.3018 26.0211C54.4788 26.2059 54.5673 26.4729 54.5673 26.8217V28.7383Z" fill="#BABABA"/>
<path d="M57.0336 25.7437C57.1421 25.7437 57.2324 25.7515 57.3041 25.7674L57.2436 26.5193C57.179 26.5018 57.1001 26.493 57.007 26.493C56.7511 26.493 56.5518 26.5587 56.409 26.6902C56.2659 26.8217 56.1948 27.0056 56.1948 27.2422V28.7383H55.3926V25.7989H56.0001L56.1182 26.2931H56.1578C56.249 26.1284 56.3722 25.9957 56.5272 25.8949C56.6823 25.7941 56.8512 25.7437 57.0336 25.7437Z" fill="#BABABA"/>
<path d="M59.4671 27.3785L59.157 27.3891C58.9238 27.3962 58.7503 27.4381 58.6364 27.5153C58.5225 27.5924 58.4656 27.7098 58.4656 27.8675C58.4656 28.0937 58.5952 28.2069 58.8546 28.2069C59.0404 28.2069 59.1889 28.1534 59.3001 28.0464C59.4117 27.9394 59.4671 27.7975 59.4671 27.6205V27.3785ZM59.7037 28.7405L59.5487 28.3409H59.5275C59.3929 28.5108 59.254 28.6287 59.1108 28.6945C58.9681 28.7603 58.7818 28.793 58.5521 28.793C58.2701 28.793 58.0477 28.7124 57.8857 28.5512C57.7234 28.39 57.6426 28.1603 57.6426 27.8624C57.6426 27.5503 57.7514 27.3204 57.9696 27.1721C58.1882 27.0241 58.5171 26.9422 58.9573 26.9265L59.4671 26.9107V26.7818C59.4671 26.4838 59.3147 26.3347 59.0097 26.3347C58.7749 26.3347 58.4986 26.4057 58.1816 26.5477L57.9157 26.0062C58.2543 25.8292 58.6295 25.7407 59.0412 25.7407C59.4356 25.7407 59.738 25.8265 59.9484 25.9983C60.1585 26.1701 60.264 26.4313 60.264 26.7818V28.7405H59.7037Z" fill="#BABABA"/>
<path d="M62.3011 28.1541C62.5061 28.1541 62.6562 28.0947 62.752 27.9755C62.8474 27.8562 62.8994 27.6538 62.9082 27.3681V27.2814C62.9082 26.9659 62.8597 26.7397 62.7624 26.6029C62.6651 26.4663 62.5069 26.3979 62.288 26.3979C62.109 26.3979 61.9702 26.4739 61.8709 26.6254C61.772 26.777 61.7224 26.9974 61.7224 27.2866C61.7224 27.5757 61.7724 27.7927 61.8724 27.9374C61.9721 28.0818 62.1152 28.1541 62.3011 28.1541ZM62.0195 28.793C61.6743 28.793 61.403 28.6589 61.2057 28.3907C61.0086 28.1226 60.9102 27.7511 60.9102 27.276C60.9102 26.7941 61.0102 26.4186 61.211 26.1495C61.4119 25.8804 61.6882 25.7459 62.0406 25.7459C62.4103 25.7459 62.6927 25.8896 62.8874 26.177H62.9136C62.8732 25.958 62.8532 25.7626 62.8532 25.5908V24.6496H63.6577V28.7405H63.0425L62.8874 28.3592H62.8532C62.6708 28.6486 62.393 28.793 62.0195 28.793Z" fill="#BABABA"/>
<path d="M64.2383 26.9677H65.6504V27.625H64.2383V26.9677Z" fill="#BABABA"/>
<path d="M68.1742 27.1397C67.9167 26.3108 67.7717 25.8418 67.739 25.7331C67.7067 25.6244 67.6836 25.5386 67.6693 25.4755C67.6116 25.6998 67.4462 26.2546 67.1726 27.1397H68.1742ZM68.6474 28.7383L68.3688 27.8234H66.9675L66.6886 28.7383H65.8105L67.1672 24.8786H68.1638L69.5258 28.7383H68.6474Z" fill="#BABABA"/>
<path d="M71.1585 28.1541C71.3636 28.1541 71.5136 28.0947 71.6095 27.9755C71.7049 27.8562 71.7568 27.6538 71.7657 27.3681V27.2814C71.7657 26.9659 71.7173 26.7397 71.6199 26.6029C71.5226 26.4663 71.3644 26.3979 71.1455 26.3979C70.9665 26.3979 70.8276 26.4739 70.7284 26.6254C70.6295 26.777 70.5799 26.9974 70.5799 27.2866C70.5799 27.5757 70.6299 27.7927 70.7299 27.9374C70.8296 28.0818 70.9727 28.1541 71.1585 28.1541ZM70.8769 28.793C70.5317 28.793 70.2606 28.6589 70.0631 28.3907C69.8661 28.1226 69.7676 27.7511 69.7676 27.276C69.7676 26.7941 69.8676 26.4186 70.0685 26.1495C70.2693 25.8804 70.5457 25.7459 70.8981 25.7459C71.2678 25.7459 71.5502 25.8896 71.7449 26.177H71.7711C71.7307 25.958 71.7107 25.7626 71.7107 25.5908V24.6496H72.5152V28.7405H71.9L71.7449 28.3592H71.7107C71.5283 28.6486 71.2505 28.793 70.8769 28.793Z" fill="#BABABA"/>
<path d="M74.5698 26.3164C74.3997 26.3164 74.2666 26.3703 74.1704 26.478C74.0738 26.5859 74.0188 26.7389 74.0046 26.9369H75.13C75.1265 26.7389 75.0746 26.5859 74.9749 26.478C74.8749 26.3703 74.7399 26.3164 74.5698 26.3164ZM74.6829 28.793C74.2096 28.793 73.8399 28.6625 73.5732 28.4013C73.307 28.1401 73.1738 27.7703 73.1738 27.2918C73.1738 26.7992 73.297 26.4186 73.5432 26.1494C73.7894 25.8803 74.13 25.7459 74.5648 25.7459C74.9799 25.7459 75.3035 25.8642 75.5347 26.1008C75.7664 26.3374 75.8818 26.6645 75.8818 27.0815V27.4706H73.9861C73.995 27.6984 74.0622 27.8763 74.1885 28.0043C74.3147 28.1322 74.492 28.1963 74.7198 28.1963C74.8968 28.1963 75.0642 28.1778 75.2219 28.1411C75.3797 28.1043 75.5444 28.0455 75.7164 27.9648V28.5854C75.576 28.6555 75.4262 28.7076 75.2666 28.7418C75.1073 28.7761 74.9126 28.793 74.6829 28.793Z" fill="#BABABA"/>
<path d="M79.2469 28.7383H78.4447V27.0214C78.4447 26.8094 78.407 26.6503 78.332 26.5444C78.2566 26.4382 78.1365 26.3852 77.9714 26.3852C77.7472 26.3852 77.5852 26.4601 77.4851 26.6099C77.3851 26.7598 77.3354 27.0083 77.3354 27.3553V28.7383H76.5332V25.7989H77.1461L77.2539 26.1748H77.2985C77.3878 26.0328 77.5109 25.9255 77.6679 25.8528C77.8249 25.7801 78.003 25.7437 78.2031 25.7437C78.5448 25.7437 78.8041 25.8363 78.9815 26.0211C79.1584 26.2059 79.2469 26.4729 79.2469 26.8217V28.7383Z" fill="#BABABA"/>
<path d="M81.7035 27.3785L81.3933 27.3891C81.1602 27.3962 80.9866 27.4381 80.8727 27.5153C80.7589 27.5924 80.7019 27.7098 80.7019 27.8675C80.7019 28.0937 80.8316 28.2069 81.0909 28.2069C81.2768 28.2069 81.4253 28.1534 81.5365 28.0464C81.6481 27.9394 81.7035 27.7975 81.7035 27.6205V27.3785ZM81.9401 28.7405L81.785 28.3409H81.7639C81.6292 28.5108 81.4903 28.6287 81.3472 28.6945C81.2044 28.7603 81.0182 28.793 80.7885 28.793C80.5065 28.793 80.2841 28.7124 80.1221 28.5512C79.9597 28.39 79.8789 28.1603 79.8789 27.8624C79.8789 27.5503 79.9878 27.3204 80.206 27.1721C80.4245 27.0241 80.7535 26.9422 81.1937 26.9265L81.7035 26.9107V26.7818C81.7035 26.4838 81.5511 26.3347 81.246 26.3347C81.0113 26.3347 80.735 26.4057 80.418 26.5477L80.1521 26.0062C80.4907 25.8292 80.8658 25.7407 81.2776 25.7407C81.6719 25.7407 81.9743 25.8265 82.1848 25.9983C82.3949 26.1701 82.5003 26.4313 82.5003 26.7818V28.7405H81.9401Z" fill="#BABABA"/>
<path d="M85.409 28.7405L85.3009 28.3646H85.259C85.1732 28.5011 85.0511 28.6067 84.8935 28.6812C84.7357 28.7559 84.5559 28.793 84.3544 28.793C84.0092 28.793 83.7488 28.7007 83.5737 28.5156C83.3982 28.3307 83.3105 28.0649 83.3105 27.7176V25.8011H84.1127V27.518C84.1127 27.73 84.1504 27.889 84.2254 27.995C84.3008 28.1012 84.421 28.1541 84.586 28.1541C84.8103 28.1541 84.9722 28.0793 85.0723 27.9294C85.1724 27.7796 85.222 27.531 85.222 27.184V25.8011H86.0242V28.7405H85.409Z" fill="#BABABA"/>
<path d="M88.0834 26.3164C87.9134 26.3164 87.7802 26.3703 87.6841 26.478C87.5875 26.5859 87.5324 26.7389 87.5182 26.9369H88.6437C88.6402 26.7389 88.5882 26.5859 88.4886 26.478C88.3885 26.3703 88.2535 26.3164 88.0834 26.3164ZM88.1966 28.793C87.7233 28.793 87.3536 28.6625 87.0869 28.4013C86.8206 28.1401 86.6875 27.7703 86.6875 27.2918C86.6875 26.7992 86.8106 26.4186 87.0569 26.1494C87.3031 25.8803 87.6437 25.7459 88.0785 25.7459C88.4936 25.7459 88.8172 25.8642 89.0485 26.1008C89.2801 26.3374 89.3955 26.6645 89.3955 27.0815V27.4706H87.4998C87.5086 27.6984 87.5759 27.8763 87.7021 28.0043C87.8283 28.1322 88.0057 28.1963 88.2335 28.1963C88.4105 28.1963 88.5778 28.1778 88.7356 28.1411C88.8934 28.1043 89.0581 28.0455 89.23 27.9648V28.5854C89.0896 28.6555 88.9399 28.7076 88.7803 28.7418C88.621 28.7761 88.4263 28.793 88.1966 28.793Z" fill="#BABABA"/>
<path d="M91.6879 25.7437C91.7963 25.7437 91.8868 25.7515 91.9584 25.7674L91.8979 26.5193C91.8333 26.5018 91.7544 26.493 91.6613 26.493C91.4054 26.493 91.2061 26.5587 91.0634 26.6902C90.9202 26.8217 90.8491 27.0056 90.8491 27.2422V28.7383H90.0469V25.7989H90.6543L90.7725 26.2931H90.8121C90.9033 26.1284 91.0265 25.9957 91.1815 25.8949C91.3365 25.7941 91.5055 25.7437 91.6879 25.7437Z" fill="#BABABA"/>
<path d="M92.2305 26.9677H93.6425V27.625H92.2305V26.9677Z" fill="#BABABA"/>
<path d="M96.5567 27.673C96.5567 28.02 96.4317 28.2935 96.182 28.4932C95.9323 28.6931 95.5848 28.793 95.1393 28.793C94.7291 28.793 94.3663 28.716 94.0508 28.5618V27.8044C94.3105 27.9202 94.5298 28.0016 94.7095 28.0491C94.8892 28.0964 95.0535 28.1201 95.2024 28.1201C95.3813 28.1201 95.5186 28.0859 95.6141 28.0173C95.7095 27.949 95.7572 27.8475 95.7572 27.7124C95.7572 27.637 95.7364 27.5701 95.6941 27.5114C95.6521 27.4525 95.5902 27.3962 95.509 27.3417C95.4275 27.2875 95.2613 27.2007 95.0108 27.0814C94.7757 26.971 94.5995 26.8651 94.4821 26.7633C94.3647 26.6617 94.2708 26.5434 94.2008 26.4084C94.1308 26.2735 94.0958 26.1158 94.0958 25.9352C94.0958 25.595 94.2108 25.3279 94.4413 25.1332C94.6718 24.9387 94.9904 24.8413 95.3971 24.8413C95.5971 24.8413 95.7876 24.865 95.9692 24.9123C96.1505 24.9596 96.3401 25.0264 96.5383 25.1122L96.2755 25.7459C96.0704 25.6618 95.9007 25.6029 95.7664 25.5696C95.6326 25.5364 95.5005 25.5198 95.3709 25.5198C95.2166 25.5198 95.0981 25.5556 95.0158 25.6275C94.9334 25.6994 94.8922 25.7932 94.8922 25.9088C94.8922 25.9807 94.9088 26.0435 94.9423 26.0969C94.9753 26.1504 95.0285 26.202 95.1012 26.252C95.1739 26.302 95.3463 26.3918 95.6179 26.5215C95.9773 26.6933 96.2236 26.8654 96.3567 27.038C96.4902 27.2107 96.5567 27.4223 96.5567 27.673Z" fill="#BABABA"/>
<path d="M98.4282 28.1541C98.5683 28.1541 98.7368 28.1235 98.933 28.0622V28.6589C98.7333 28.7484 98.4878 28.793 98.1969 28.793C97.8761 28.793 97.6425 28.712 97.4963 28.5498C97.3498 28.3877 97.2766 28.1445 97.2766 27.8202V26.4032H96.8926V26.0641L97.3343 25.7959L97.5659 25.1753H98.0785V25.8011H98.9014V26.4032H98.0785V27.8202C98.0785 27.9343 98.1104 28.0183 98.1746 28.0728C98.2385 28.127 98.3232 28.1541 98.4282 28.1541Z" fill="#BABABA"/>
<path d="M100.33 28.7402H99.528V25.8008H100.33V28.7402ZM99.4941 25.041C99.4941 24.7799 99.6396 24.6493 99.9305 24.6493C100.221 24.6493 100.367 24.7799 100.367 25.041C100.367 25.1655 100.331 25.2624 100.258 25.3315C100.185 25.4007 100.076 25.4354 99.9305 25.4354C99.6396 25.4354 99.4941 25.3039 99.4941 25.041Z" fill="#BABABA"/>
<path d="M102.797 26.401H102.103V28.7383H101.301V26.401H100.859V26.0146L101.301 25.7989V25.5833C101.301 25.2485 101.383 25.0041 101.549 24.8498C101.713 24.6955 101.977 24.6183 102.34 24.6183C102.617 24.6183 102.863 24.6597 103.079 24.7421L102.874 25.3309C102.712 25.2801 102.563 25.2547 102.427 25.2547C102.313 25.2547 102.23 25.2884 102.179 25.3559C102.128 25.4234 102.103 25.5098 102.103 25.6148V25.7989H102.797V26.401Z" fill="#BABABA"/>
<path d="M104.495 28.1541C104.635 28.1541 104.803 28.1235 104.999 28.0622V28.6589C104.8 28.7484 104.554 28.793 104.263 28.793C103.942 28.793 103.709 28.712 103.563 28.5498C103.416 28.3877 103.343 28.1445 103.343 27.8202V26.4032H102.959V26.0641L103.401 25.7959L103.632 25.1753H104.145V25.8011H104.968V26.4032H104.145V27.8202C104.145 27.9343 104.177 28.0183 104.241 28.0728C104.305 28.127 104.39 28.1541 104.495 28.1541Z" fill="#BABABA"/>
<path d="M107.677 28.7405L107.568 28.3646H107.527C107.441 28.5011 107.319 28.6067 107.161 28.6812C107.003 28.7559 106.824 28.793 106.622 28.793C106.277 28.793 106.016 28.7007 105.841 28.5156C105.666 28.3307 105.578 28.0649 105.578 27.7176V25.8011H106.38V27.518C106.38 27.73 106.418 27.889 106.493 27.995C106.569 28.1012 106.689 28.1541 106.854 28.1541C107.078 28.1541 107.24 28.0793 107.34 27.9294C107.44 27.7796 107.49 27.531 107.49 27.184V25.8011H108.292V28.7405H107.677Z" fill="#BABABA"/>
<path d="M111.847 28.7383H111.044V27.0214C111.044 26.8094 111.007 26.6503 110.932 26.5444C110.856 26.4382 110.736 26.3852 110.571 26.3852C110.347 26.3852 110.185 26.4601 110.085 26.6099C109.985 26.7598 109.935 27.0083 109.935 27.3553V28.7383H109.133V25.7989H109.746L109.853 26.1748H109.898C109.987 26.0328 110.111 25.9255 110.267 25.8528C110.424 25.7801 110.603 25.7437 110.803 25.7437C111.144 25.7437 111.404 25.8363 111.581 26.0211C111.758 26.2059 111.847 26.4729 111.847 26.8217V28.7383Z" fill="#BABABA"/>
<path d="M113.254 26.7626C113.254 26.922 113.29 27.0482 113.363 27.1411C113.435 27.234 113.546 27.2806 113.695 27.2806C113.846 27.2806 113.956 27.234 114.027 27.1411C114.097 27.0482 114.132 26.922 114.132 26.7626C114.132 26.4086 113.986 26.2314 113.695 26.2314C113.401 26.2314 113.254 26.4086 113.254 26.7626ZM112.962 29.155C112.962 29.2655 113.015 29.3522 113.121 29.4153C113.227 29.4786 113.375 29.5101 113.567 29.5101C113.854 29.5101 114.079 29.4707 114.242 29.3916C114.405 29.3128 114.487 29.205 114.487 29.0683C114.487 28.9579 114.438 28.8817 114.342 28.8395C114.246 28.7976 114.097 28.7764 113.895 28.7764H113.48C113.333 28.7764 113.209 28.8111 113.11 28.8803C113.011 28.9495 112.962 29.0412 112.962 29.155ZM115.231 25.8003V26.2077L114.771 26.3261C114.855 26.4576 114.897 26.6048 114.897 26.7679C114.897 27.0834 114.787 27.3293 114.567 27.5053C114.347 27.6815 114.041 27.7696 113.65 27.7696L113.506 27.7617L113.388 27.7484C113.305 27.8115 113.264 27.8818 113.264 27.9589C113.264 28.0745 113.411 28.1324 113.706 28.1324H114.205C114.528 28.1324 114.774 28.2016 114.943 28.3401C115.112 28.4785 115.197 28.6818 115.197 28.9499C115.197 29.2935 115.053 29.5599 114.767 29.7493C114.48 29.9386 114.069 30.0332 113.532 30.0332C113.122 30.0332 112.809 29.9618 112.592 29.8189C112.376 29.6762 112.268 29.4759 112.268 29.2182C112.268 29.0412 112.323 28.893 112.433 28.774C112.544 28.6547 112.706 28.5697 112.92 28.5188C112.837 28.4839 112.765 28.4264 112.704 28.3467C112.643 28.2669 112.612 28.1824 112.612 28.0929C112.612 27.9808 112.644 27.8875 112.709 27.8128C112.774 27.7384 112.868 27.6653 112.991 27.5934C112.836 27.5268 112.714 27.4199 112.624 27.2727C112.533 27.1254 112.488 26.9518 112.488 26.7522C112.488 26.4312 112.593 26.1833 112.801 26.0081C113.01 25.8328 113.308 25.7451 113.695 25.7451C113.778 25.7451 113.875 25.7526 113.989 25.7674C114.101 25.7824 114.174 25.7934 114.205 25.8003H115.231Z" fill="#BABABA"/>
<path d="M0.236328 0.758728V28.7383H9.85171L25.9064 0.758728H0.236328Z" fill="#BABABA"/>
<path d="M28.2158 18.6035V6.95028L21.5293 18.6035H28.2158Z" fill="#BABABA"/>
<path d="M18.8432 23.2829L15.7129 28.7383H28.2157V23.2829H18.8432Z" fill="#BABABA"/>
<path d="M23.4206 5.08876L23.1047 5.64549C22.8875 5.50332 22.6704 5.36908 22.4453 5.23882C20.4554 4.10563 18.2877 3.56471 16.1477 3.56471C13.7669 3.56471 11.4216 4.23593 9.39606 5.49149C10.1344 5.22695 10.9201 5.0414 11.7532 4.94663C14.7105 4.61102 18.0982 5.42831 21.2964 7.25243C21.5214 7.38273 21.7386 7.51303 21.9557 7.64334L21.6359 8.20007C21.4227 8.06583 21.2016 7.93553 20.9805 7.80917C17.9008 6.05217 14.6473 5.25854 11.8282 5.58232C9.75533 5.81527 7.99439 6.62468 6.6243 7.95524C9.66061 6.73522 14.8842 7.52092 19.6065 10.2137C19.8276 10.34 20.0448 10.4703 20.2579 10.6006L19.9421 11.1534C19.7289 11.0231 19.5117 10.8928 19.2906 10.7665C13.5102 7.46962 7.67854 7.36696 5.56222 9.35692L7.04285 10.2413C7.41005 9.96496 7.93121 10.0163 8.23129 10.3716C8.40106 10.573 8.4603 10.8257 8.42477 11.0666L17.044 16.2034L16.7281 16.7561L8.11286 11.6193C7.74172 11.9154 7.20474 11.8641 6.90072 11.5048C6.72696 11.2956 6.66382 11.031 6.71118 10.7823L5.15161 9.85836C4.02631 12.5827 7.09416 17.9406 13.2062 21.427C13.4194 21.5494 13.6326 21.66 13.8498 21.7744L13.53 22.3272C13.3167 22.2127 13.1035 22.1022 12.8903 21.9837C8.14839 19.2791 4.81201 15.1571 4.33427 11.9154C3.17742 16.4284 5.79518 21.123 11.5163 24.3882C11.7256 24.5067 11.9388 24.6212 12.152 24.7357L11.8361 25.2806C11.6229 25.17 11.4097 25.0634 11.2004 24.941C6.50193 22.2601 3.80917 18.6355 3.45774 14.8886C3.40644 15.3584 3.37879 15.8243 3.37879 16.2941C3.37879 20.7242 5.68858 25.0398 9.80668 27.385C10.012 27.5035 10.2252 27.618 10.4345 27.7206L10.1186 28.2734C9.90933 28.1668 9.69614 28.0602 9.49083 27.9418C3.07871 24.2817 0.839984 16.0888 4.49616 9.67676L4.92654 8.97789C8.76826 3.11063 16.586 1.1641 22.7612 4.68603C22.9862 4.81239 23.2074 4.95057 23.4206 5.08876Z" fill="#373737"/>
<path d="M22.7602 4.68531C18.5565 2.2863 13.9686 3.19998 10.2396 6.91436C9.95038 6.80198 9.61038 6.84751 9.35717 7.06231C9.04361 7.32834 8.96542 7.76772 9.14205 8.11955C8.64522 8.71854 8.16775 9.37161 7.713 10.0772C7.90845 10.1104 8.09377 10.2098 8.23209 10.3728C8.24168 10.3841 8.24984 10.396 8.25871 10.4076C8.69195 9.7372 9.14617 9.11643 9.61826 8.54702C9.90459 8.65308 10.2381 8.60621 10.4876 8.39458C10.7966 8.13232 10.8769 7.70163 10.7099 7.35235C13.5366 4.5559 16.8618 3.44799 20.0913 4.27675C19.291 4.3946 18.437 4.68715 17.564 5.13204C17.2447 4.88865 16.7887 4.89048 16.47 5.16085C16.2301 5.36441 16.1284 5.6696 16.1726 5.95937C15.5329 6.39338 14.893 6.9015 14.2656 7.47495C13.9663 7.33663 13.6014 7.37355 13.3335 7.6009C13.0288 7.85944 12.9463 8.28176 13.104 8.6283C12.2254 9.57352 11.3908 10.6453 10.6397 11.8182C10.3991 11.7821 10.1448 11.8454 9.9446 12.0152C9.5886 12.3172 9.53582 12.8427 9.8156 13.2098C8.226 16.1169 7.30771 19.2388 7.22347 22.0453C7.17933 23.5145 7.37479 24.7923 7.77886 25.8086C6.2248 24.1764 5.40038 22.0015 5.34191 19.5545C5.44313 19.5202 5.53991 19.4673 5.62635 19.3939C5.99417 19.0818 6.03938 18.5305 5.72725 18.1626C5.63844 18.058 5.52996 17.9804 5.41216 17.9288C5.62339 15.9709 6.29022 13.8875 7.42981 11.8003C7.23037 11.7688 7.04075 11.6692 6.89987 11.5032C6.8927 11.4948 6.88665 11.4858 6.87993 11.4771C5.68379 13.6627 4.98658 15.8478 4.76931 17.9052C4.67212 17.9397 4.57919 17.991 4.49589 18.0617C4.12802 18.3738 4.08285 18.9252 4.39498 19.293C4.48052 19.3938 4.5843 19.4694 4.69694 19.5211C4.76496 23.1158 6.39923 26.1768 9.48993 27.9405L9.48989 27.9406C9.69681 28.0587 9.90804 28.1671 10.1192 28.2734L10.4356 27.722C10.2242 27.6165 10.0138 27.5054 9.8061 27.3869H9.80588C8.49063 26.6364 7.78155 24.6963 7.86059 22.0646C7.94187 19.3647 8.82714 16.3545 10.3607 13.5418C10.6069 13.5843 10.8696 13.5218 11.0751 13.3474C11.4362 13.041 11.4854 12.5044 11.1918 12.1368C11.927 10.9875 12.7262 9.96173 13.5543 9.06898C13.8492 9.19539 14.2027 9.15483 14.464 8.93313C14.7618 8.68041 14.8479 8.271 14.7043 7.92903C15.2992 7.38851 15.8999 6.91517 16.4944 6.51311C16.8142 6.76564 17.2778 6.7669 17.6004 6.49308C17.842 6.28808 17.9435 5.97989 17.8968 5.68829C19.6974 4.79088 21.3392 4.60896 22.4444 5.239C22.6704 5.36795 22.8887 5.50422 23.1036 5.64469L23.4216 5.09051C23.2057 4.9503 22.9866 4.81445 22.7602 4.68531Z" fill="#BABABA"/>
</g>
</g>
</g>
</svg>